<?xml version="1.0" encoding="UTF-8" standalone="no"?><svg xmlns="http://www.w3.org/2000/svg" xmlns:xlink="http://www.w3.org/1999/xlink" clip-rule="evenodd" stroke-miterlimit="4.00" viewBox="0 0 1024 768"><desc>SVG generated by Keynote</desc><defs></defs><g transform="matrix(1.00, 0.00, -0.00, -1.00, 0.0, 768.0)"><g><clipPath id="clip-22"><path d="M 0.0 768.0 L 1024.0 768.0 L 1024.0 0.0 L 0.0 0.0 Z M 0.0 768.0 "></path></clipPath><g clip-path="url(#clip-22)"><image xlink:href="50EB91801EF71E6843EBDAF4BDD31BA8.jpeg" width="1024.00" height="768.00" transform="matrix(1.00, 0.00, -0.00, -1.00, 0.0, 768.0)"></image></g></g><g><clipPath id="clip-23"><path d="M 604.0 607.0 L 940.0 607.0 L 940.0 162.0 L 604.0 162.0 Z M 603.5 607.0 "></path></clipPath><g clip-path="url(#clip-23)"><image xlink:href="616C1EBF3B20BCB10DE86E7A183B9A41.jpeg" width="203.00" height="230.00" transform="matrix(1.94, 0.00, -0.00, -1.93, 575.0, 607.0)"></image></g></g><image xlink:href="FA6B3DF071086FA2195E127A0DBBF5FE.png" width="416.00" height="47.00" transform="matrix(1.00, 0.00, -0.00, -1.00, 97.0, 486.0)"></image><text xml:space="preserve" font-family="Copperplate" font-size="78.0" fill="#FFFBF2" transform="matrix(1.00, 0.00, -0.00, -1.00, 101.0, 439.0)">A</text><text xml:space="preserve" font-family="Copperplate" font-size="78.0" fill="#FFFBF2" transform="matrix(1.00, 0.00, -0.00, -1.00, 153.0, 439.0)">l</text><text xml:space="preserve" font-family="Copperplate" font-size="78.0" fill="#FFFBF2" transform="matrix(1.00, 0.00, -0.00, -1.00, 196.4, 439.0)">e</text><text xml:space="preserve" font-family="Copperplate" font-size="78.0" fill="#FFFBF2" transform="matrix(1.00, 0.00, -0.00, -1.00, 239.8, 439.0)">x</text><text xml:space="preserve" font-family="Copperplate" font-size="78.0" fill="#FFFBF2" transform="matrix(1.00, 0.00, -0.00, -1.00, 283.1, 439.0)">a</text><text xml:space="preserve" font-family="Copperplate" font-size="78.0" fill="#FFFBF2" transform="matrix(1.00, 0.00, -0.00, -1.00, 326.5, 439.0)">n</text><text xml:space="preserve" font-family="Copperplate" font-size="78.0" fill="#FFFBF2" transform="matrix(1.00, 0.00, -0.00, -1.00, 378.5, 439.0)">d</text><text xml:space="preserve" font-family="Copperplate" font-size="78.0" fill="#FFFBF2" transform="matrix(1.00, 0.00, -0.00, -1.00, 426.2, 439.0)">e</text><text xml:space="preserve" font-family="Copperplate" font-size="78.0" fill="#FFFBF2" transform="matrix(1.00, 0.00, -0.00, -1.00, 469.6, 439.0)">r</text><text xml:space="preserve" font-family="Copperplate" font-size="78.0" fill="#FFFBF2" transform="matrix(1.00, 0.00, -0.00, -1.00, 517.2, 439.0)"> </text><image xlink:href="AF4F5C4B509E7827885118889CB75A30.png" width="359.00" height="47.00" transform="matrix(1.00, 0.00, -0.00, -1.00, 127.0, 406.0)"></image><text xml:space="preserve" font-family="Copperplate" font-size="78.0" fill="#FFFBF2" transform="matrix(1.00, 0.00, -0.00, -1.00, 125.0, 359.0)">H</text><text xml:space="preserve" font-family="Copperplate" font-size="78.0" fill="#FFFBF2" transform="matrix(1.00, 0.00, -0.00, -1.00, 185.7, 359.0)">a</text><text xml:space="preserve" font-family="Copperplate" font-size="78.0" fill="#FFFBF2" transform="matrix(1.00, 0.00, -0.00, -1.00, 229.1, 359.0)">m</text><text xml:space="preserve" font-family="Copperplate" font-size="78.0" fill="#FFFBF2" transform="matrix(1.00, 0.00, -0.00, -1.00, 285.4, 359.0)">i</text><text xml:space="preserve" font-family="Copperplate" font-size="78.0" fill="#FFFBF2" transform="matrix(1.00, 0.00, -0.00, -1.00, 311.3, 359.0)">l</text><text xml:space="preserve" font-family="Copperplate" font-size="78.0" fill="#FFFBF2" transform="matrix(1.00, 0.00, -0.00, -1.00, 354.7, 359.0)">t</text><text xml:space="preserve" font-family="Copperplate" font-size="78.0" fill="#FFFBF2" transform="matrix(1.00, 0.00, -0.00, -1.00, 393.7, 359.0)">o</text><text xml:space="preserve" font-family="Copperplate" font-size="78.0" fill="#FFFBF2" transform="matrix(1.00, 0.00, -0.00, -1.00, 441.4, 359.0)">n</text><image xlink:href="2DD63DBF7D2C8DA3255BF578097BBBB8.png" width="451.00" height="29.00" transform="matrix(1.00, 0.00, -0.00, -1.00, 83.0, 316.0)"></image><text xml:space="preserve" font-family="Copperplate" font-size="42.0" fill="#FFFBF2" transform="matrix(1.00, 0.00, -0.00, -1.00, 84.0, 289.0)">F</text><text xml:space="preserve" font-family="Copperplate" font-size="42.0" fill="#FFFBF2" transform="matrix(1.00, 0.00, -0.00, -1.00, 109.7, 289.0)">o</text><text xml:space="preserve" font-family="Copperplate" font-size="42.0" fill="#FFFBF2" transform="matrix(1.00, 0.00, -0.00, -1.00, 135.3, 289.0)">u</text><text xml:space="preserve" font-family="Copperplate" font-size="42.0" fill="#FFFBF2" transform="matrix(1.00, 0.00, -0.00, -1.00, 163.3, 289.0)">n</text><text xml:space="preserve" font-family="Copperplate" font-size="42.0" fill="#FFFBF2" transform="matrix(1.00, 0.00, -0.00, -1.00, 191.4, 289.0)">d</text><text xml:space="preserve" font-family="Copperplate" font-size="42.0" fill="#FFFBF2" transform="matrix(1.00, 0.00, -0.00, -1.00, 217.0, 289.0)">i</text><text xml:space="preserve" font-family="Copperplate" font-size="42.0" fill="#FFFBF2" transform="matrix(1.00, 0.00, -0.00, -1.00, 231.0, 289.0)">n</text><text xml:space="preserve" font-family="Copperplate" font-size="42.0" fill="#FFFBF2" transform="matrix(1.00, 0.00, -0.00, -1.00, 259.0, 289.0)">g</text><text xml:space="preserve" font-family="Copperplate" font-size="42.0" fill="#FFFBF2" transform="matrix(1.00, 0.00, -0.00, -1.00, 284.7, 289.0)"> </text><text xml:space="preserve" font-family="Copperplate" font-size="42.0" fill="#FFFBF2" transform="matrix(1.00, 0.00, -0.00, -1.00, 297.5, 289.0)">F</text><text xml:space="preserve" font-family="Copperplate" font-size="42.0" fill="#FFFBF2" transform="matrix(1.00, 0.00, -0.00, -1.00, 323.1, 289.0)">a</text><text xml:space="preserve" font-family="Copperplate" font-size="42.0" fill="#FFFBF2" transform="matrix(1.00, 0.00, -0.00, -1.00, 346.5, 289.0)">t</text><text xml:space="preserve" font-family="Copperplate" font-size="42.0" fill="#FFFBF2" transform="matrix(1.00, 0.00, -0.00, -1.00, 367.5, 289.0)">h</text><text xml:space="preserve" font-family="Copperplate" font-size="42.0" fill="#FFFBF2" transform="matrix(1.00, 0.00, -0.00, -1.00, 395.5, 289.0)">e</text><text xml:space="preserve" font-family="Copperplate" font-size="42.0" fill="#FFFBF2" transform="matrix(1.00, 0.00, -0.00, -1.00, 418.9, 289.0)">r</text><text xml:space="preserve" font-family="Copperplate" font-size="42.0" fill="#FFFBF2" transform="matrix(1.00, 0.00, -0.00, -1.00, 444.5, 289.0)"> </text><text xml:space="preserve" font-family="Copperplate" font-size="42.0" fill="#FFFBF2" transform="matrix(1.00, 0.00, -0.00, -1.00, 457.3, 289.0)">a</text><text xml:space="preserve" font-family="Copperplate" font-size="42.0" fill="#FFFBF2" transform="matrix(1.00, 0.00, -0.00, -1.00, 480.7, 289.0)">n</text><text xml:space="preserve" font-family="Copperplate" font-size="42.0" fill="#FFFBF2" transform="matrix(1.00, 0.00, -0.00, -1.00, 508.7, 289.0)">d</text><text xml:space="preserve" font-family="Copperplate" font-size="42.0" fill="#FFFBF2" transform="matrix(1.00, 0.00, -0.00, -1.00, 534.4, 289.0)"> </text><image xlink:href="F02FEBC5C00420B67ED1E93B4399A61C.png" width="322.00" height="28.00" transform="matrix(1.00, 0.00, -0.00, -1.00, 147.0, 272.0)"></image><text xml:space="preserve" font-family="Copperplate" font-size="42.0" fill="#FFFBF2" transform="matrix(1.00, 0.00, -0.00, -1.00, 148.0, 246.0)">C</text><text xml:space="preserve" font-family="Copperplate" font-size="42.0" fill="#FFFBF2" transform="matrix(1.00, 0.00, -0.00, -1.00, 178.3, 246.0)">r</text><text xml:space="preserve" font-family="Copperplate" font-size="42.0" fill="#FFFBF2" transform="matrix(1.00, 0.00, -0.00, -1.00, 204.0, 246.0)">e</text><text xml:space="preserve" font-family="Copperplate" font-size="42.0" fill="#FFFBF2" transform="matrix(1.00, 0.00, -0.00, -1.00, 227.3, 246.0)">a</text><text xml:space="preserve" font-family="Copperplate" font-size="42.0" fill="#FFFBF2" transform="matrix(1.00, 0.00, -0.00, -1.00, 250.7, 246.0)">t</text><text xml:space="preserve" font-family="Copperplate" font-size="42.0" fill="#FFFBF2" transform="matrix(1.00, 0.00, -0.00, -1.00, 271.7, 246.0)">o</text><text xml:space="preserve" font-family="Copperplate" font-size="42.0" fill="#FFFBF2" transform="matrix(1.00, 0.00, -0.00, -1.00, 297.4, 246.0)">r</text><text xml:space="preserve" font-family="Copperplate" font-size="42.0" fill="#FFFBF2" transform="matrix(1.00, 0.00, -0.00, -1.00, 323.0, 246.0)"> </text><text xml:space="preserve" font-family="Copperplate" font-size="42.0" fill="#FFFBF2" transform="matrix(1.00, 0.00, -0.00, -1.00, 335.8, 246.0)">o</text><text xml:space="preserve" font-family="Copperplate" font-size="42.0" fill="#FFFBF2" transform="matrix(1.00, 0.00, -0.00, -1.00, 361.5, 246.0)">f</text><text xml:space="preserve" font-family="Copperplate" font-size="42.0" fill="#FFFBF2" transform="matrix(1.00, 0.00, -0.00, -1.00, 384.8, 246.0)"> </text><text xml:space="preserve" font-family="Copperplate" font-size="42.0" fill="#FFFBF2" transform="matrix(1.00, 0.00, -0.00, -1.00, 397.6, 246.0)">t</text><text xml:space="preserve" font-family="Copperplate" font-size="42.0" fill="#FFFBF2" transform="matrix(1.00, 0.00, -0.00, -1.00, 418.6, 246.0)">h</text><text xml:space="preserve" font-family="Copperplate" font-size="42.0" fill="#FFFBF2" transform="matrix(1.00, 0.00, -0.00, -1.00, 446.7, 246.0)">e</text><text xml:space="preserve" font-family="Copperplate" font-size="42.0" fill="#FFFBF2" transform="matrix(1.00, 0.00, -0.00, -1.00, 470.0, 246.0)"> </text><image xlink:href="A3678CE6EE44724BC2D8319FF45771FC.png" width="388.00" height="29.00" transform="matrix(1.00, 0.00, -0.00, -1.00, 114.0, 230.0)"></image><text xml:space="preserve" font-family="Copperplate" font-size="42.0" fill="#FFFBF2" transform="matrix(1.00, 0.00, -0.00, -1.00, 115.0, 203.0)">F</text><text xml:space="preserve" font-family="Copperplate" font-size="42.0" fill="#FFFBF2" transform="matrix(1.00, 0.00, -0.00, -1.00, 140.7, 203.0)">e</text><text xml:space="preserve" font-family="Copperplate" font-size="42.0" fill="#FFFBF2" transform="matrix(1.00, 0.00, -0.00, -1.00, 164.0, 203.0)">d</text><text xml:space="preserve" font-family="Copperplate" font-size="42.0" fill="#FFFBF2" transform="matrix(1.00, 0.00, -0.00, -1.00, 189.7, 203.0)">e</text><text xml:space="preserve" font-family="Copperplate" font-size="42.0" fill="#FFFBF2" transform="matrix(1.00, 0.00, -0.00, -1.00, 213.0, 203.0)">r</text><text xml:space="preserve" font-family="Copperplate" font-size="42.0" fill="#FFFBF2" transform="matrix(1.00, 0.00, -0.00, -1.00, 238.7, 203.0)">a</text><text xml:space="preserve" font-family="Copperplate" font-size="42.0" fill="#FFFBF2" transform="matrix(1.00, 0.00, -0.00, -1.00, 262.0, 203.0)">l</text><text xml:space="preserve" font-family="Copperplate" font-size="42.0" fill="#FFFBF2" transform="matrix(1.00, 0.00, -0.00, -1.00, 285.4, 203.0)">i</text><text xml:space="preserve" font-family="Copperplate" font-size="42.0" fill="#FFFBF2" transform="matrix(1.00, 0.00, -0.00, -1.00, 299.4, 203.0)">s</text><text xml:space="preserve" font-family="Copperplate" font-size="42.0" fill="#FFFBF2" transform="matrix(1.00, 0.00, -0.00, -1.00, 322.7, 203.0)">t</text><text xml:space="preserve" font-family="Copperplate" font-size="42.0" fill="#FFFBF2" transform="matrix(1.00, 0.00, -0.00, -1.00, 343.7, 203.0)"> </text><text xml:space="preserve" font-family="Copperplate" font-size="42.0" fill="#FFFBF2" transform="matrix(1.00, 0.00, -0.00, -1.00, 356.5, 203.0)">P</text><text xml:space="preserve" font-family="Copperplate" font-size="42.0" fill="#FFFBF2" transform="matrix(1.00, 0.00, -0.00, -1.00, 384.6, 203.0)">a</text><text xml:space="preserve" font-family="Copperplate" font-size="42.0" fill="#FFFBF2" transform="matrix(1.00, 0.00, -0.00, -1.00, 407.9, 203.0)">p</text><text xml:space="preserve" font-family="Copperplate" font-size="42.0" fill="#FFFBF2" transform="matrix(1.00, 0.00, -0.00, -1.00, 431.3, 203.0)">e</text><text xml:space="preserve" font-family="Copperplate" font-size="42.0" fill="#FFFBF2" transform="matrix(1.00, 0.00, -0.00, -1.00, 454.6, 203.0)">r</text><text xml:space="preserve" font-family="Copperplate" font-size="42.0" fill="#FFFBF2" transform="matrix(1.00, 0.00, -0.00, -1.00, 480.3, 203.0)">s</text><image xlink:href="D99B5CF60806D8EA925F59EC17DC541C.png" width="40.00" height="31.00" transform="matrix(0.98, 0.00, -0.00, -1.00, 601.0, 595.0)"></image><image xlink:href="../../728F471F-F0F7-4562-9F14-EE42852C0F63/assets/D99B5CF60806D8EA925F59EC17DC541C.png" width="40.00" height="31.00" transform="matrix(0.98, 0.00, -0.00, -1.00, 896.0, 595.0)"></image><image xlink:href="../../728F471F-F0F7-4562-9F14-EE42852C0F63/assets/D99B5CF60806D8EA925F59EC17DC541C.png" width="40.00" height="31.00" transform="matrix(0.98, 0.00, -0.00, -1.00, 896.0, 213.0)"></image><image xlink:href="../../728F471F-F0F7-4562-9F14-EE42852C0F63/assets/D99B5CF60806D8EA925F59EC17DC541C.png" width="40.00" height="31.00" transform="matrix(0.98, 0.00, -0.00, -1.00, 601.0, 213.0)"></image></g></svg>