<?xml version="1.0" encoding="UTF-8" standalone="no"?><svg xmlns="http://www.w3.org/2000/svg" xmlns:xlink="http://www.w3.org/1999/xlink" clip-rule="evenodd" stroke-miterlimit="4.00" viewBox="0 0 629 47"><desc>SVG generated by Keynote</desc><defs></defs><g transform="matrix(1.00, 0.00, -0.00, -1.00, 0.0, 47.0)"><text xml:space="preserve" font-family="Copperplate" font-size="78.0" fill="#6E695A" transform="matrix(1.00, 0.00, -0.00, -1.00, -3.0, 3.0)">F</text><text xml:space="preserve" font-family="Copperplate" font-size="78.0" fill="#6E695A" transform="matrix(1.00, 0.00, -0.00, -1.00, 44.7, 3.0)">a</text><text xml:space="preserve" font-family="Copperplate" font-size="78.0" fill="#6E695A" transform="matrix(1.00, 0.00, -0.00, -1.00, 88.0, 3.0)">r</text><text xml:space="preserve" font-family="Copperplate" font-size="78.0" fill="#6E695A" transform="matrix(1.00, 0.00, -0.00, -1.00, 135.7, 3.0)">m</text><text xml:space="preserve" font-family="Copperplate" font-size="78.0" fill="#6E695A" transform="matrix(1.00, 0.00, -0.00, -1.00, 192.0, 3.0)">e</text><text xml:space="preserve" font-family="Copperplate" font-size="78.0" fill="#6E695A" transform="matrix(1.00, 0.00, -0.00, -1.00, 235.4, 3.0)">r</text><text xml:space="preserve" font-family="Copperplate" font-size="78.0" fill="#6E695A" transform="matrix(1.00, 0.00, -0.00, -1.00, 283.0, 3.0)"> </text><text xml:space="preserve" font-family="Copperplate" font-size="78.0" fill="#6E695A" transform="matrix(1.00, 0.00, -0.00, -1.00, 306.8, 3.0)">R</text><text xml:space="preserve" font-family="Copperplate" font-size="78.0" fill="#6E695A" transform="matrix(1.00, 0.00, -0.00, -1.00, 363.1, 3.0)">e</text><text xml:space="preserve" font-family="Copperplate" font-size="78.0" fill="#6E695A" transform="matrix(1.00, 0.00, -0.00, -1.00, 406.5, 3.0)">f</text><text xml:space="preserve" font-family="Copperplate" font-size="78.0" fill="#6E695A" transform="matrix(1.00, 0.00, -0.00, -1.00, 449.9, 3.0)">u</text><text xml:space="preserve" font-family="Copperplate" font-size="78.0" fill="#6E695A" transform="matrix(1.00, 0.00, -0.00, -1.00, 501.9, 3.0)">t</text><text xml:space="preserve" font-family="Copperplate" font-size="78.0" fill="#6E695A" transform="matrix(1.00, 0.00, -0.00, -1.00, 540.9, 3.0)">e</text><text xml:space="preserve" font-family="Copperplate" font-size="78.0" fill="#6E695A" transform="matrix(1.00, 0.00, -0.00, -1.00, 584.3, 3.0)">d</text></g></svg>