<?xml version="1.0" encoding="UTF-8" standalone="no"?><svg xmlns="http://www.w3.org/2000/svg" xmlns:xlink="http://www.w3.org/1999/xlink" clip-rule="evenodd" stroke-miterlimit="4.00" viewBox="0 0 775 139"><desc>SVG generated by Keynote</desc><defs></defs><g transform="matrix(1.00, 0.00, -0.00, -1.00, 0.0, 139.0)"><text xml:space="preserve" font-family="Baskerville" font-size="40.0" fill="#A19A84" transform="matrix(1.00, 0.00, -0.00, -1.00, 0.0, 102.8)">•</text><text xml:space="preserve" font-family="Baskerville" font-size="40.0" fill="#6E695A" transform="matrix(1.00, 0.00, -0.00, -1.00, 33.0, 103.0)">W</text><text xml:space="preserve" font-family="Baskerville" font-size="40.0" fill="#6E695A" transform="matrix(1.00, 0.00, -0.00, -1.00, 70.9, 103.0)">h</text><text xml:space="preserve" font-family="Baskerville" font-size="40.0" fill="#6E695A" transform="matrix(1.00, 0.00, -0.00, -1.00, 92.2, 103.0)">e</text><text xml:space="preserve" font-family="Baskerville" font-size="40.0" fill="#6E695A" transform="matrix(1.00, 0.00, -0.00, -1.00, 109.6, 103.0)">n</text><text xml:space="preserve" font-family="Baskerville" font-size="40.0" fill="#6E695A" transform="matrix(1.00, 0.00, -0.00, -1.00, 130.9, 103.0)"> </text><text xml:space="preserve" font-family="Baskerville" font-size="40.0" fill="#6E695A" transform="matrix(1.00, 0.00, -0.00, -1.00, 140.9, 103.0)">H</text><text xml:space="preserve" font-family="Baskerville" font-size="40.0" fill="#6E695A" transform="matrix(1.00, 0.00, -0.00, -1.00, 173.0, 103.0)">a</text><text xml:space="preserve" font-family="Baskerville" font-size="40.0" fill="#6E695A" transform="matrix(1.00, 0.00, -0.00, -1.00, 191.7, 103.0)">m</text><text xml:space="preserve" font-family="Baskerville" font-size="40.0" fill="#6E695A" transform="matrix(1.00, 0.00, -0.00, -1.00, 223.8, 103.0)">i</text><text xml:space="preserve" font-family="Baskerville" font-size="40.0" fill="#6E695A" transform="matrix(1.00, 0.00, -0.00, -1.00, 233.8, 103.0)">l</text><text xml:space="preserve" font-family="Baskerville" font-size="40.0" fill="#6E695A" transform="matrix(1.00, 0.00, -0.00, -1.00, 243.4, 103.0)">t</text><text xml:space="preserve" font-family="Baskerville" font-size="40.0" fill="#6E695A" transform="matrix(1.00, 0.00, -0.00, -1.00, 255.1, 103.0)">o</text><text xml:space="preserve" font-family="Baskerville" font-size="40.0" fill="#6E695A" transform="matrix(1.00, 0.00, -0.00, -1.00, 275.1, 103.0)">n</text><text xml:space="preserve" font-family="Baskerville" font-size="40.0" fill="#6E695A" transform="matrix(1.00, 0.00, -0.00, -1.00, 296.3, 103.0)"> </text><text xml:space="preserve" font-family="Baskerville" font-size="40.0" fill="#6E695A" transform="matrix(1.00, 0.00, -0.00, -1.00, 306.3, 103.0)">w</text><text xml:space="preserve" font-family="Baskerville" font-size="40.0" fill="#6E695A" transform="matrix(1.00, 0.00, -0.00, -1.00, 333.4, 103.0)">a</text><text xml:space="preserve" font-family="Baskerville" font-size="40.0" fill="#6E695A" transform="matrix(1.00, 0.00, -0.00, -1.00, 352.2, 103.0)">s</text><text xml:space="preserve" font-family="Baskerville" font-size="40.0" fill="#6E695A" transform="matrix(1.00, 0.00, -0.00, -1.00, 365.5, 103.0)">1</text><text xml:space="preserve" font-family="Baskerville" font-size="40.0" fill="#6E695A" transform="matrix(1.00, 0.00, -0.00, -1.00, 385.5, 103.0)">3</text><text xml:space="preserve" font-family="Baskerville" font-size="40.0" fill="#6E695A" transform="matrix(1.00, 0.00, -0.00, -1.00, 405.5, 103.0)"> </text><text xml:space="preserve" font-family="Baskerville" font-size="40.0" fill="#6E695A" transform="matrix(1.00, 0.00, -0.00, -1.00, 415.5, 103.0)">h</text><text xml:space="preserve" font-family="Baskerville" font-size="40.0" fill="#6E695A" transform="matrix(1.00, 0.00, -0.00, -1.00, 436.8, 103.0)">e</text><text xml:space="preserve" font-family="Baskerville" font-size="40.0" fill="#6E695A" transform="matrix(1.00, 0.00, -0.00, -1.00, 454.3, 103.0)"> </text><text xml:space="preserve" font-family="Baskerville" font-size="40.0" fill="#6E695A" transform="matrix(1.00, 0.00, -0.00, -1.00, 464.3, 103.0)">b</text><text xml:space="preserve" font-family="Baskerville" font-size="40.0" fill="#6E695A" transform="matrix(1.00, 0.00, -0.00, -1.00, 485.1, 103.0)">e</text><text xml:space="preserve" font-family="Baskerville" font-size="40.0" fill="#6E695A" transform="matrix(1.00, 0.00, -0.00, -1.00, 502.6, 103.0)">c</text><text xml:space="preserve" font-family="Baskerville" font-size="40.0" fill="#6E695A" transform="matrix(1.00, 0.00, -0.00, -1.00, 519.7, 103.0)">a</text><text xml:space="preserve" font-family="Baskerville" font-size="40.0" fill="#6E695A" transform="matrix(1.00, 0.00, -0.00, -1.00, 538.4, 103.0)">m</text><text xml:space="preserve" font-family="Baskerville" font-size="40.0" fill="#6E695A" transform="matrix(1.00, 0.00, -0.00, -1.00, 570.5, 103.0)">e</text><text xml:space="preserve" font-family="Baskerville" font-size="40.0" fill="#6E695A" transform="matrix(1.00, 0.00, -0.00, -1.00, 588.0, 103.0)"> </text><text xml:space="preserve" font-family="Baskerville" font-size="40.0" fill="#6E695A" transform="matrix(1.00, 0.00, -0.00, -1.00, 598.0, 103.0)">a</text><text xml:space="preserve" font-family="Baskerville" font-size="40.0" fill="#6E695A" transform="matrix(1.00, 0.00, -0.00, -1.00, 616.7, 103.0)"> </text><text xml:space="preserve" font-family="Baskerville" font-size="40.0" fill="#6E695A" transform="matrix(1.00, 0.00, -0.00, -1.00, 626.7, 103.0)">c</text><text xml:space="preserve" font-family="Baskerville" font-size="40.0" fill="#6E695A" transform="matrix(1.00, 0.00, -0.00, -1.00, 643.8, 103.0)">l</text><text xml:space="preserve" font-family="Baskerville" font-size="40.0" fill="#6E695A" transform="matrix(1.00, 0.00, -0.00, -1.00, 653.4, 103.0)">e</text><text xml:space="preserve" font-family="Baskerville" font-size="40.0" fill="#6E695A" transform="matrix(1.00, 0.00, -0.00, -1.00, 670.9, 103.0)">r</text><text xml:space="preserve" font-family="Baskerville" font-size="40.0" fill="#6E695A" transform="matrix(1.00, 0.00, -0.00, -1.00, 684.7, 103.0)">k</text><text xml:space="preserve" font-family="Baskerville" font-size="40.0" fill="#6E695A" transform="matrix(1.00, 0.00, -0.00, -1.00, 703.1, 103.0)"> </text><text xml:space="preserve" font-family="Baskerville" font-size="40.0" fill="#6E695A" transform="matrix(1.00, 0.00, -0.00, -1.00, 713.1, 103.0)">a</text><text xml:space="preserve" font-family="Baskerville" font-size="40.0" fill="#6E695A" transform="matrix(1.00, 0.00, -0.00, -1.00, 731.4, 103.0)">t</text><text xml:space="preserve" font-family="Baskerville" font-size="40.0" fill="#6E695A" transform="matrix(1.00, 0.00, -0.00, -1.00, 743.1, 103.0)"> </text><text xml:space="preserve" font-family="Baskerville" font-size="40.0" fill="#6E695A" transform="matrix(1.00, 0.00, -0.00, -1.00, 753.1, 103.0)">a</text><text xml:space="preserve" font-family="Baskerville" font-size="40.0" fill="#6E695A" transform="matrix(1.00, 0.00, -0.00, -1.00, 771.8, 103.0)"> </text><text xml:space="preserve" font-family="Baskerville" font-size="40.0" fill="#6E695A" transform="matrix(1.00, 0.00, -0.00, -1.00, 33.0, 57.0)">l</text><text xml:space="preserve" font-family="Baskerville" font-size="40.0" fill="#6E695A" transform="matrix(1.00, 0.00, -0.00, -1.00, 42.6, 57.0)">o</text><text xml:space="preserve" font-family="Baskerville" font-size="40.0" fill="#6E695A" transform="matrix(1.00, 0.00, -0.00, -1.00, 62.6, 57.0)">c</text><text xml:space="preserve" font-family="Baskerville" font-size="40.0" fill="#6E695A" transform="matrix(1.00, 0.00, -0.00, -1.00, 79.7, 57.0)">a</text><text xml:space="preserve" font-family="Baskerville" font-size="40.0" fill="#6E695A" transform="matrix(1.00, 0.00, -0.00, -1.00, 98.4, 57.0)">l</text><text xml:space="preserve" font-family="Baskerville" font-size="40.0" fill="#6E695A" transform="matrix(1.00, 0.00, -0.00, -1.00, 108.0, 57.0)"> </text><text xml:space="preserve" font-family="Baskerville" font-size="40.0" fill="#6E695A" transform="matrix(1.00, 0.00, -0.00, -1.00, 118.0, 57.0)">i</text><text xml:space="preserve" font-family="Baskerville" font-size="40.0" fill="#6E695A" transform="matrix(1.00, 0.00, -0.00, -1.00, 128.0, 57.0)">m</text><text xml:space="preserve" font-family="Baskerville" font-size="40.0" fill="#6E695A" transform="matrix(1.00, 0.00, -0.00, -1.00, 160.1, 57.0)">p</text><text xml:space="preserve" font-family="Baskerville" font-size="40.0" fill="#6E695A" transform="matrix(1.00, 0.00, -0.00, -1.00, 180.9, 57.0)">o</text><text xml:space="preserve" font-family="Baskerville" font-size="40.0" fill="#6E695A" transform="matrix(1.00, 0.00, -0.00, -1.00, 200.9, 57.0)">r</text><text xml:space="preserve" font-family="Baskerville" font-size="40.0" fill="#6E695A" transform="matrix(1.00, 0.00, -0.00, -1.00, 215.5, 57.0)">t</text><text xml:space="preserve" font-family="Baskerville" font-size="40.0" fill="#6E695A" transform="matrix(1.00, 0.00, -0.00, -1.00, 227.1, 57.0)">-</text><text xml:space="preserve" font-family="Baskerville" font-size="40.0" fill="#6E695A" transform="matrix(1.00, 0.00, -0.00, -1.00, 239.6, 57.0)">e</text><text xml:space="preserve" font-family="Baskerville" font-size="40.0" fill="#6E695A" transform="matrix(1.00, 0.00, -0.00, -1.00, 256.7, 57.0)">x</text><text xml:space="preserve" font-family="Baskerville" font-size="40.0" fill="#6E695A" transform="matrix(1.00, 0.00, -0.00, -1.00, 275.9, 57.0)">p</text><text xml:space="preserve" font-family="Baskerville" font-size="40.0" fill="#6E695A" transform="matrix(1.00, 0.00, -0.00, -1.00, 296.7, 57.0)">o</text><text xml:space="preserve" font-family="Baskerville" font-size="40.0" fill="#6E695A" transform="matrix(1.00, 0.00, -0.00, -1.00, 316.7, 57.0)">r</text><text xml:space="preserve" font-family="Baskerville" font-size="40.0" fill="#6E695A" transform="matrix(1.00, 0.00, -0.00, -1.00, 331.3, 57.0)">t</text><text xml:space="preserve" font-family="Baskerville" font-size="40.0" fill="#6E695A" transform="matrix(1.00, 0.00, -0.00, -1.00, 342.9, 57.0)"> </text><text xml:space="preserve" font-family="Baskerville" font-size="40.0" fill="#6E695A" transform="matrix(1.00, 0.00, -0.00, -1.00, 352.9, 57.0)">ﬁ</text><text xml:space="preserve" font-family="Baskerville" font-size="40.0" fill="#6E695A" transform="matrix(1.00, 0.00, -0.00, -1.00, 373.4, 57.0)">r</text><text xml:space="preserve" font-family="Baskerville" font-size="40.0" fill="#6E695A" transform="matrix(1.00, 0.00, -0.00, -1.00, 389.4, 57.0)">m</text><text xml:space="preserve" font-family="Baskerville" font-size="40.0" fill="#6E695A" transform="matrix(1.00, 0.00, -0.00, -1.00, 421.5, 57.0)"> </text><text xml:space="preserve" font-family="Baskerville" font-size="40.0" fill="#6E695A" transform="matrix(1.00, 0.00, -0.00, -1.00, 431.5, 57.0)">t</text><text xml:space="preserve" font-family="Baskerville" font-size="40.0" fill="#6E695A" transform="matrix(1.00, 0.00, -0.00, -1.00, 443.1, 57.0)">h</text><text xml:space="preserve" font-family="Baskerville" font-size="40.0" fill="#6E695A" transform="matrix(1.00, 0.00, -0.00, -1.00, 464.4, 57.0)">a</text><text xml:space="preserve" font-family="Baskerville" font-size="40.0" fill="#6E695A" transform="matrix(1.00, 0.00, -0.00, -1.00, 482.7, 57.0)">t</text><text xml:space="preserve" font-family="Baskerville" font-size="40.0" fill="#6E695A" transform="matrix(1.00, 0.00, -0.00, -1.00, 494.4, 57.0)"> </text><text xml:space="preserve" font-family="Baskerville" font-size="40.0" fill="#6E695A" transform="matrix(1.00, 0.00, -0.00, -1.00, 504.4, 57.0)">t</text><text xml:space="preserve" font-family="Baskerville" font-size="40.0" fill="#6E695A" transform="matrix(1.00, 0.00, -0.00, -1.00, 516.0, 57.0)">r</text><text xml:space="preserve" font-family="Baskerville" font-size="40.0" fill="#6E695A" transform="matrix(1.00, 0.00, -0.00, -1.00, 530.6, 57.0)">a</text><text xml:space="preserve" font-family="Baskerville" font-size="40.0" fill="#6E695A" transform="matrix(1.00, 0.00, -0.00, -1.00, 549.3, 57.0)">d</text><text xml:space="preserve" font-family="Baskerville" font-size="40.0" fill="#6E695A" transform="matrix(1.00, 0.00, -0.00, -1.00, 570.2, 57.0)">e</text><text xml:space="preserve" font-family="Baskerville" font-size="40.0" fill="#6E695A" transform="matrix(1.00, 0.00, -0.00, -1.00, 587.6, 57.0)">d</text><text xml:space="preserve" font-family="Baskerville" font-size="40.0" fill="#6E695A" transform="matrix(1.00, 0.00, -0.00, -1.00, 608.5, 57.0)"> </text><text xml:space="preserve" font-family="Baskerville" font-size="40.0" fill="#6E695A" transform="matrix(1.00, 0.00, -0.00, -1.00, 618.5, 57.0)">w</text><text xml:space="preserve" font-family="Baskerville" font-size="40.0" fill="#6E695A" transform="matrix(1.00, 0.00, -0.00, -1.00, 645.6, 57.0)">i</text><text xml:space="preserve" font-family="Baskerville" font-size="40.0" fill="#6E695A" transform="matrix(1.00, 0.00, -0.00, -1.00, 655.6, 57.0)">t</text><text xml:space="preserve" font-family="Baskerville" font-size="40.0" fill="#6E695A" transform="matrix(1.00, 0.00, -0.00, -1.00, 667.2, 57.0)">h</text><text xml:space="preserve" font-family="Baskerville" font-size="40.0" fill="#6E695A" transform="matrix(1.00, 0.00, -0.00, -1.00, 688.5, 57.0)"> </text><text xml:space="preserve" font-family="Baskerville" font-size="40.0" fill="#6E695A" transform="matrix(1.00, 0.00, -0.00, -1.00, 698.5, 57.0)">N</text><text xml:space="preserve" font-family="Baskerville" font-size="40.0" fill="#6E695A" transform="matrix(1.00, 0.00, -0.00, -1.00, 728.5, 57.0)">e</text><text xml:space="preserve" font-family="Baskerville" font-size="40.0" fill="#6E695A" transform="matrix(1.00, 0.00, -0.00, -1.00, 746.0, 57.0)">w</text><text xml:space="preserve" font-family="Baskerville" font-size="40.0" fill="#6E695A" transform="matrix(1.00, 0.00, -0.00, -1.00, 773.1, 57.0)"> </text><text xml:space="preserve" font-family="Baskerville" font-size="40.0" fill="#6E695A" transform="matrix(1.00, 0.00, -0.00, -1.00, 33.0, 11.0)">E</text><text xml:space="preserve" font-family="Baskerville" font-size="40.0" fill="#6E695A" transform="matrix(1.00, 0.00, -0.00, -1.00, 58.0, 11.0)">n</text><text xml:space="preserve" font-family="Baskerville" font-size="40.0" fill="#6E695A" transform="matrix(1.00, 0.00, -0.00, -1.00, 79.3, 11.0)">g</text><text xml:space="preserve" font-family="Baskerville" font-size="40.0" fill="#6E695A" transform="matrix(1.00, 0.00, -0.00, -1.00, 98.4, 11.0)">l</text><text xml:space="preserve" font-family="Baskerville" font-size="40.0" fill="#6E695A" transform="matrix(1.00, 0.00, -0.00, -1.00, 108.0, 11.0)">a</text><text xml:space="preserve" font-family="Baskerville" font-size="40.0" fill="#6E695A" transform="matrix(1.00, 0.00, -0.00, -1.00, 126.7, 11.0)">n</text><text xml:space="preserve" font-family="Baskerville" font-size="40.0" fill="#6E695A" transform="matrix(1.00, 0.00, -0.00, -1.00, 148.0, 11.0)">d</text><text xml:space="preserve" font-family="Baskerville" font-size="40.0" fill="#6E695A" transform="matrix(1.00, 0.00, -0.00, -1.00, 168.8, 11.0)">.</text></g></svg>