<?xml version="1.0" encoding="UTF-8" standalone="no"?><svg xmlns="http://www.w3.org/2000/svg" xmlns:xlink="http://www.w3.org/1999/xlink" clip-rule="evenodd" stroke-miterlimit="4.00" viewBox="0 0 1024 768"><desc>SVG generated by Keynote</desc><defs></defs><g transform="matrix(1.00, 0.00, -0.00, -1.00, 0.0, 768.0)"><g><clipPath id="clip-34"><path d="M 0.0 768.0 L 1024.0 768.0 L 1024.0 0.0 L 0.0 0.0 Z M 0.0 768.0 "></path></clipPath><g clip-path="url(#clip-34)"><image xlink:href="../../728F471F-F0F7-4562-9F14-EE42852C0F63/assets/E83C1847B2B388C404EB332FEECC4B73.jpeg" width="1024.00" height="768.00" transform="matrix(1.00, 0.00, -0.00, -1.00, 0.0, 768.0)"></image></g></g><text xml:space="preserve" font-family="Copperplate" font-size="78.0" fill="#6E695A" transform="matrix(1.00, 0.00, -0.00, -1.00, 195.0, 632.0)">F</text><text xml:space="preserve" font-family="Copperplate" font-size="78.0" fill="#6E695A" transform="matrix(1.00, 0.00, -0.00, -1.00, 242.7, 632.0)">a</text><text xml:space="preserve" font-family="Copperplate" font-size="78.0" fill="#6E695A" transform="matrix(1.00, 0.00, -0.00, -1.00, 286.0, 632.0)">r</text><text xml:space="preserve" font-family="Copperplate" font-size="78.0" fill="#6E695A" transform="matrix(1.00, 0.00, -0.00, -1.00, 333.7, 632.0)">m</text><text xml:space="preserve" font-family="Copperplate" font-size="78.0" fill="#6E695A" transform="matrix(1.00, 0.00, -0.00, -1.00, 390.0, 632.0)">e</text><text xml:space="preserve" font-family="Copperplate" font-size="78.0" fill="#6E695A" transform="matrix(1.00, 0.00, -0.00, -1.00, 433.4, 632.0)">r</text><text xml:space="preserve" font-family="Copperplate" font-size="78.0" fill="#6E695A" transform="matrix(1.00, 0.00, -0.00, -1.00, 481.0, 632.0)"> </text><text xml:space="preserve" font-family="Copperplate" font-size="78.0" fill="#6E695A" transform="matrix(1.00, 0.00, -0.00, -1.00, 504.8, 632.0)">R</text><text xml:space="preserve" font-family="Copperplate" font-size="78.0" fill="#6E695A" transform="matrix(1.00, 0.00, -0.00, -1.00, 561.1, 632.0)">e</text><text xml:space="preserve" font-family="Copperplate" font-size="78.0" fill="#6E695A" transform="matrix(1.00, 0.00, -0.00, -1.00, 604.5, 632.0)">f</text><text xml:space="preserve" font-family="Copperplate" font-size="78.0" fill="#6E695A" transform="matrix(1.00, 0.00, -0.00, -1.00, 647.9, 632.0)">u</text><text xml:space="preserve" font-family="Copperplate" font-size="78.0" fill="#6E695A" transform="matrix(1.00, 0.00, -0.00, -1.00, 699.9, 632.0)">t</text><text xml:space="preserve" font-family="Copperplate" font-size="78.0" fill="#6E695A" transform="matrix(1.00, 0.00, -0.00, -1.00, 738.9, 632.0)">e</text><text xml:space="preserve" font-family="Copperplate" font-size="78.0" fill="#6E695A" transform="matrix(1.00, 0.00, -0.00, -1.00, 782.3, 632.0)">d</text><text xml:space="preserve" font-family="Baskerville" font-size="40.0" fill="#A19A84" transform="matrix(1.00, 0.00, -0.00, -1.00, 84.0, 380.8)">•</text><text xml:space="preserve" font-family="Baskerville" font-size="40.0" fill="#6E695A" transform="matrix(1.00, 0.00, -0.00, -1.00, 117.0, 381.0)">T</text><text xml:space="preserve" font-family="Baskerville" font-size="40.0" fill="#6E695A" transform="matrix(1.00, 0.00, -0.00, -1.00, 145.3, 381.0)">h</text><text xml:space="preserve" font-family="Baskerville" font-size="40.0" fill="#6E695A" transform="matrix(1.00, 0.00, -0.00, -1.00, 166.6, 381.0)">e</text><text xml:space="preserve" font-family="Baskerville" font-size="40.0" fill="#6E695A" transform="matrix(1.00, 0.00, -0.00, -1.00, 184.0, 381.0)"> </text><text xml:space="preserve" font-family="Baskerville" font-size="40.0" fill="#6E695A" transform="matrix(1.00, 0.00, -0.00, -1.00, 194.0, 381.0)">F</text><text xml:space="preserve" font-family="Baskerville" font-size="40.0" fill="#6E695A" transform="matrix(1.00, 0.00, -0.00, -1.00, 213.9, 381.0)">a</text><text xml:space="preserve" font-family="Baskerville" font-size="40.0" fill="#6E695A" transform="matrix(1.00, 0.00, -0.00, -1.00, 232.6, 381.0)">r</text><text xml:space="preserve" font-family="Baskerville" font-size="40.0" fill="#6E695A" transform="matrix(1.00, 0.00, -0.00, -1.00, 248.6, 381.0)">m</text><text xml:space="preserve" font-family="Baskerville" font-size="40.0" fill="#6E695A" transform="matrix(1.00, 0.00, -0.00, -1.00, 280.7, 381.0)">e</text><text xml:space="preserve" font-family="Baskerville" font-size="40.0" fill="#6E695A" transform="matrix(1.00, 0.00, -0.00, -1.00, 298.2, 381.0)">r</text><text xml:space="preserve" font-family="Baskerville" font-size="40.0" fill="#6E695A" transform="matrix(1.00, 0.00, -0.00, -1.00, 312.8, 381.0)"> </text><text xml:space="preserve" font-family="Baskerville" font-size="40.0" fill="#6E695A" transform="matrix(1.00, 0.00, -0.00, -1.00, 322.8, 381.0)">R</text><text xml:space="preserve" font-family="Baskerville" font-size="40.0" fill="#6E695A" transform="matrix(1.00, 0.00, -0.00, -1.00, 350.1, 381.0)">e</text><text xml:space="preserve" font-family="Baskerville" font-size="40.0" fill="#6E695A" transform="matrix(1.00, 0.00, -0.00, -1.00, 367.6, 381.0)">f</text><text xml:space="preserve" font-family="Baskerville" font-size="40.0" fill="#6E695A" transform="matrix(1.00, 0.00, -0.00, -1.00, 378.4, 381.0)">u</text><text xml:space="preserve" font-family="Baskerville" font-size="40.0" fill="#6E695A" transform="matrix(1.00, 0.00, -0.00, -1.00, 399.3, 381.0)">t</text><text xml:space="preserve" font-family="Baskerville" font-size="40.0" fill="#6E695A" transform="matrix(1.00, 0.00, -0.00, -1.00, 410.9, 381.0)">e</text><text xml:space="preserve" font-family="Baskerville" font-size="40.0" fill="#6E695A" transform="matrix(1.00, 0.00, -0.00, -1.00, 428.4, 381.0)">d</text><text xml:space="preserve" font-family="Baskerville" font-size="40.0" fill="#6E695A" transform="matrix(1.00, 0.00, -0.00, -1.00, 449.2, 381.0)"> </text><text xml:space="preserve" font-family="Baskerville" font-size="40.0" fill="#6E695A" transform="matrix(1.00, 0.00, -0.00, -1.00, 459.2, 381.0)">i</text><text xml:space="preserve" font-family="Baskerville" font-size="40.0" fill="#6E695A" transform="matrix(1.00, 0.00, -0.00, -1.00, 469.2, 381.0)">s</text><text xml:space="preserve" font-family="Baskerville" font-size="40.0" fill="#6E695A" transform="matrix(1.00, 0.00, -0.00, -1.00, 482.6, 381.0)"> </text><text xml:space="preserve" font-family="Baskerville" font-size="40.0" fill="#6E695A" transform="matrix(1.00, 0.00, -0.00, -1.00, 492.6, 381.0)">a</text><text xml:space="preserve" font-family="Baskerville" font-size="40.0" fill="#6E695A" transform="matrix(1.00, 0.00, -0.00, -1.00, 511.3, 381.0)"> </text><text xml:space="preserve" font-family="Baskerville" font-size="40.0" fill="#6E695A" transform="matrix(1.00, 0.00, -0.00, -1.00, 521.3, 381.0)">l</text><text xml:space="preserve" font-family="Baskerville" font-size="40.0" fill="#6E695A" transform="matrix(1.00, 0.00, -0.00, -1.00, 530.9, 381.0)">o</text><text xml:space="preserve" font-family="Baskerville" font-size="40.0" fill="#6E695A" transform="matrix(1.00, 0.00, -0.00, -1.00, 550.9, 381.0)">n</text><text xml:space="preserve" font-family="Baskerville" font-size="40.0" fill="#6E695A" transform="matrix(1.00, 0.00, -0.00, -1.00, 572.2, 381.0)">g</text><text xml:space="preserve" font-family="Baskerville" font-size="40.0" fill="#6E695A" transform="matrix(1.00, 0.00, -0.00, -1.00, 590.9, 381.0)"> </text><text xml:space="preserve" font-family="Baskerville" font-size="40.0" fill="#6E695A" transform="matrix(1.00, 0.00, -0.00, -1.00, 600.9, 381.0)">d</text><text xml:space="preserve" font-family="Baskerville" font-size="40.0" fill="#6E695A" transform="matrix(1.00, 0.00, -0.00, -1.00, 621.8, 381.0)">o</text><text xml:space="preserve" font-family="Baskerville" font-size="40.0" fill="#6E695A" transform="matrix(1.00, 0.00, -0.00, -1.00, 641.8, 381.0)">c</text><text xml:space="preserve" font-family="Baskerville" font-size="40.0" fill="#6E695A" transform="matrix(1.00, 0.00, -0.00, -1.00, 658.9, 381.0)">u</text><text xml:space="preserve" font-family="Baskerville" font-size="40.0" fill="#6E695A" transform="matrix(1.00, 0.00, -0.00, -1.00, 679.7, 381.0)">m</text><text xml:space="preserve" font-family="Baskerville" font-size="40.0" fill="#6E695A" transform="matrix(1.00, 0.00, -0.00, -1.00, 711.8, 381.0)">e</text><text xml:space="preserve" font-family="Baskerville" font-size="40.0" fill="#6E695A" transform="matrix(1.00, 0.00, -0.00, -1.00, 729.3, 381.0)">n</text><text xml:space="preserve" font-family="Baskerville" font-size="40.0" fill="#6E695A" transform="matrix(1.00, 0.00, -0.00, -1.00, 750.5, 381.0)">t</text><text xml:space="preserve" font-family="Baskerville" font-size="40.0" fill="#6E695A" transform="matrix(1.00, 0.00, -0.00, -1.00, 762.2, 381.0)"> </text><text xml:space="preserve" font-family="Baskerville" font-size="40.0" fill="#6E695A" transform="matrix(1.00, 0.00, -0.00, -1.00, 772.2, 381.0)">w</text><text xml:space="preserve" font-family="Baskerville" font-size="40.0" fill="#6E695A" transform="matrix(1.00, 0.00, -0.00, -1.00, 799.3, 381.0)">r</text><text xml:space="preserve" font-family="Baskerville" font-size="40.0" fill="#6E695A" transform="matrix(1.00, 0.00, -0.00, -1.00, 813.9, 381.0)">i</text><text xml:space="preserve" font-family="Baskerville" font-size="40.0" fill="#6E695A" transform="matrix(1.00, 0.00, -0.00, -1.00, 823.9, 381.0)">t</text><text xml:space="preserve" font-family="Baskerville" font-size="40.0" fill="#6E695A" transform="matrix(1.00, 0.00, -0.00, -1.00, 835.5, 381.0)">t</text><text xml:space="preserve" font-family="Baskerville" font-size="40.0" fill="#6E695A" transform="matrix(1.00, 0.00, -0.00, -1.00, 847.1, 381.0)">e</text><text xml:space="preserve" font-family="Baskerville" font-size="40.0" fill="#6E695A" transform="matrix(1.00, 0.00, -0.00, -1.00, 864.6, 381.0)">n</text><text xml:space="preserve" font-family="Baskerville" font-size="40.0" fill="#6E695A" transform="matrix(1.00, 0.00, -0.00, -1.00, 885.9, 381.0)"> </text><text xml:space="preserve" font-family="Baskerville" font-size="40.0" fill="#6E695A" transform="matrix(1.00, 0.00, -0.00, -1.00, 895.9, 381.0)">b</text><text xml:space="preserve" font-family="Baskerville" font-size="40.0" fill="#6E695A" transform="matrix(1.00, 0.00, -0.00, -1.00, 915.6, 381.0)">y</text><text xml:space="preserve" font-family="Baskerville" font-size="40.0" fill="#6E695A" transform="matrix(1.00, 0.00, -0.00, -1.00, 934.0, 381.0)"> </text><text xml:space="preserve" font-family="Baskerville" font-size="40.0" fill="#6E695A" transform="matrix(1.00, 0.00, -0.00, -1.00, 117.0, 335.0)">h</text><text xml:space="preserve" font-family="Baskerville" font-size="40.0" fill="#6E695A" transform="matrix(1.00, 0.00, -0.00, -1.00, 138.3, 335.0)">a</text><text xml:space="preserve" font-family="Baskerville" font-size="40.0" fill="#6E695A" transform="matrix(1.00, 0.00, -0.00, -1.00, 157.0, 335.0)">m</text><text xml:space="preserve" font-family="Baskerville" font-size="40.0" fill="#6E695A" transform="matrix(1.00, 0.00, -0.00, -1.00, 189.1, 335.0)">i</text><text xml:space="preserve" font-family="Baskerville" font-size="40.0" fill="#6E695A" transform="matrix(1.00, 0.00, -0.00, -1.00, 199.1, 335.0)">l</text><text xml:space="preserve" font-family="Baskerville" font-size="40.0" fill="#6E695A" transform="matrix(1.00, 0.00, -0.00, -1.00, 208.7, 335.0)">t</text><text xml:space="preserve" font-family="Baskerville" font-size="40.0" fill="#6E695A" transform="matrix(1.00, 0.00, -0.00, -1.00, 220.3, 335.0)">o</text><text xml:space="preserve" font-family="Baskerville" font-size="40.0" fill="#6E695A" transform="matrix(1.00, 0.00, -0.00, -1.00, 240.3, 335.0)">n</text><text xml:space="preserve" font-family="Baskerville" font-size="40.0" fill="#6E695A" transform="matrix(1.00, 0.00, -0.00, -1.00, 261.6, 335.0)"> </text><text xml:space="preserve" font-family="Baskerville" font-size="40.0" fill="#6E695A" transform="matrix(1.00, 0.00, -0.00, -1.00, 271.6, 335.0)">a</text><text xml:space="preserve" font-family="Baskerville" font-size="40.0" fill="#6E695A" transform="matrix(1.00, 0.00, -0.00, -1.00, 290.3, 335.0)">s</text><text xml:space="preserve" font-family="Baskerville" font-size="40.0" fill="#6E695A" transform="matrix(1.00, 0.00, -0.00, -1.00, 303.7, 335.0)"> </text><text xml:space="preserve" font-family="Baskerville" font-size="40.0" fill="#6E695A" transform="matrix(1.00, 0.00, -0.00, -1.00, 313.7, 335.0)">a</text><text xml:space="preserve" font-family="Baskerville" font-size="40.0" fill="#6E695A" transform="matrix(1.00, 0.00, -0.00, -1.00, 332.4, 335.0)"> </text><text xml:space="preserve" font-family="Baskerville" font-size="40.0" fill="#6E695A" transform="matrix(1.00, 0.00, -0.00, -1.00, 342.4, 335.0)">r</text><text xml:space="preserve" font-family="Baskerville" font-size="40.0" fill="#6E695A" transform="matrix(1.00, 0.00, -0.00, -1.00, 356.6, 335.0)">e</text><text xml:space="preserve" font-family="Baskerville" font-size="40.0" fill="#6E695A" transform="matrix(1.00, 0.00, -0.00, -1.00, 374.5, 335.0)">p</text><text xml:space="preserve" font-family="Baskerville" font-size="40.0" fill="#6E695A" transform="matrix(1.00, 0.00, -0.00, -1.00, 395.3, 335.0)">l</text><text xml:space="preserve" font-family="Baskerville" font-size="40.0" fill="#6E695A" transform="matrix(1.00, 0.00, -0.00, -1.00, 404.9, 335.0)">y</text><text xml:space="preserve" font-family="Baskerville" font-size="40.0" fill="#6E695A" transform="matrix(1.00, 0.00, -0.00, -1.00, 423.3, 335.0)"> </text><text xml:space="preserve" font-family="Baskerville" font-size="40.0" fill="#6E695A" transform="matrix(1.00, 0.00, -0.00, -1.00, 433.3, 335.0)">t</text><text xml:space="preserve" font-family="Baskerville" font-size="40.0" fill="#6E695A" transform="matrix(1.00, 0.00, -0.00, -1.00, 444.9, 335.0)">o</text><text xml:space="preserve" font-family="Baskerville" font-size="40.0" fill="#6E695A" transform="matrix(1.00, 0.00, -0.00, -1.00, 464.9, 335.0)"> </text><text xml:space="preserve" font-family="Baskerville" font-size="40.0" fill="#6E695A" transform="matrix(1.00, 0.00, -0.00, -1.00, 474.9, 335.0)">S</text><text xml:space="preserve" font-family="Baskerville" font-size="40.0" fill="#6E695A" transform="matrix(1.00, 0.00, -0.00, -1.00, 496.5, 335.0)">a</text><text xml:space="preserve" font-family="Baskerville" font-size="40.0" fill="#6E695A" transform="matrix(1.00, 0.00, -0.00, -1.00, 515.3, 335.0)">m</text><text xml:space="preserve" font-family="Baskerville" font-size="40.0" fill="#6E695A" transform="matrix(1.00, 0.00, -0.00, -1.00, 546.6, 335.0)">u</text><text xml:space="preserve" font-family="Baskerville" font-size="40.0" fill="#6E695A" transform="matrix(1.00, 0.00, -0.00, -1.00, 567.4, 335.0)">e</text><text xml:space="preserve" font-family="Baskerville" font-size="40.0" fill="#6E695A" transform="matrix(1.00, 0.00, -0.00, -1.00, 584.9, 335.0)">l</text><text xml:space="preserve" font-family="Baskerville" font-size="40.0" fill="#6E695A" transform="matrix(1.00, 0.00, -0.00, -1.00, 594.5, 335.0)"> </text><text xml:space="preserve" font-family="Baskerville" font-size="40.0" fill="#6E695A" transform="matrix(1.00, 0.00, -0.00, -1.00, 604.5, 335.0)">S</text><text xml:space="preserve" font-family="Baskerville" font-size="40.0" fill="#6E695A" transform="matrix(1.00, 0.00, -0.00, -1.00, 626.1, 335.0)">e</text><text xml:space="preserve" font-family="Baskerville" font-size="40.0" fill="#6E695A" transform="matrix(1.00, 0.00, -0.00, -1.00, 643.6, 335.0)">a</text><text xml:space="preserve" font-family="Baskerville" font-size="40.0" fill="#6E695A" transform="matrix(1.00, 0.00, -0.00, -1.00, 662.4, 335.0)">b</text><text xml:space="preserve" font-family="Baskerville" font-size="40.0" fill="#6E695A" transform="matrix(1.00, 0.00, -0.00, -1.00, 682.4, 335.0)">u</text><text xml:space="preserve" font-family="Baskerville" font-size="40.0" fill="#6E695A" transform="matrix(1.00, 0.00, -0.00, -1.00, 703.3, 335.0)">r</text><text xml:space="preserve" font-family="Baskerville" font-size="40.0" fill="#6E695A" transform="matrix(1.00, 0.00, -0.00, -1.00, 718.3, 335.0)">y</text><text xml:space="preserve" font-family="Baskerville" font-size="40.0" fill="#6E695A" transform="matrix(1.00, 0.00, -0.00, -1.00, 736.6, 335.0)">’</text><text xml:space="preserve" font-family="Baskerville" font-size="40.0" fill="#6E695A" transform="matrix(1.00, 0.00, -0.00, -1.00, 745.1, 335.0)">s</text><text xml:space="preserve" font-family="Baskerville" font-size="40.0" fill="#6E695A" transform="matrix(1.00, 0.00, -0.00, -1.00, 758.5, 335.0)"> </text><text xml:space="preserve" font-family="Baskerville" font-size="40.0" fill="#6E695A" transform="matrix(1.00, 0.00, -0.00, -1.00, 768.5, 335.0)">"</text><text xml:space="preserve" font-family="Baskerville" font-size="40.0" fill="#6E695A" transform="matrix(1.00, 0.00, -0.00, -1.00, 784.8, 335.0)">F</text><text xml:space="preserve" font-family="Baskerville" font-size="40.0" fill="#6E695A" transform="matrix(1.00, 0.00, -0.00, -1.00, 804.6, 335.0)">r</text><text xml:space="preserve" font-family="Baskerville" font-size="40.0" fill="#6E695A" transform="matrix(1.00, 0.00, -0.00, -1.00, 818.8, 335.0)">e</text><text xml:space="preserve" font-family="Baskerville" font-size="40.0" fill="#6E695A" transform="matrix(1.00, 0.00, -0.00, -1.00, 836.3, 335.0)">e</text><text xml:space="preserve" font-family="Baskerville" font-size="40.0" fill="#6E695A" transform="matrix(1.00, 0.00, -0.00, -1.00, 853.8, 335.0)"> </text><text xml:space="preserve" font-family="Baskerville" font-size="40.0" fill="#6E695A" transform="matrix(1.00, 0.00, -0.00, -1.00, 117.0, 289.0)">T</text><text xml:space="preserve" font-family="Baskerville" font-size="40.0" fill="#6E695A" transform="matrix(1.00, 0.00, -0.00, -1.00, 145.3, 289.0)">h</text><text xml:space="preserve" font-family="Baskerville" font-size="40.0" fill="#6E695A" transform="matrix(1.00, 0.00, -0.00, -1.00, 166.6, 289.0)">o</text><text xml:space="preserve" font-family="Baskerville" font-size="40.0" fill="#6E695A" transform="matrix(1.00, 0.00, -0.00, -1.00, 186.6, 289.0)">u</text><text xml:space="preserve" font-family="Baskerville" font-size="40.0" fill="#6E695A" transform="matrix(1.00, 0.00, -0.00, -1.00, 207.4, 289.0)">g</text><text xml:space="preserve" font-family="Baskerville" font-size="40.0" fill="#6E695A" transform="matrix(1.00, 0.00, -0.00, -1.00, 226.1, 289.0)">h</text><text xml:space="preserve" font-family="Baskerville" font-size="40.0" fill="#6E695A" transform="matrix(1.00, 0.00, -0.00, -1.00, 247.4, 289.0)">t</text><text xml:space="preserve" font-family="Baskerville" font-size="40.0" fill="#6E695A" transform="matrix(1.00, 0.00, -0.00, -1.00, 259.0, 289.0)">s</text><text xml:space="preserve" font-family="Baskerville" font-size="40.0" fill="#6E695A" transform="matrix(1.00, 0.00, -0.00, -1.00, 272.4, 289.0)"> </text><text xml:space="preserve" font-family="Baskerville" font-size="40.0" fill="#6E695A" transform="matrix(1.00, 0.00, -0.00, -1.00, 282.4, 289.0)">o</text><text xml:space="preserve" font-family="Baskerville" font-size="40.0" fill="#6E695A" transform="matrix(1.00, 0.00, -0.00, -1.00, 302.4, 289.0)">n</text><text xml:space="preserve" font-family="Baskerville" font-size="40.0" fill="#6E695A" transform="matrix(1.00, 0.00, -0.00, -1.00, 323.7, 289.0)"> </text><text xml:space="preserve" font-family="Baskerville" font-size="40.0" fill="#6E695A" transform="matrix(1.00, 0.00, -0.00, -1.00, 333.7, 289.0)">t</text><text xml:space="preserve" font-family="Baskerville" font-size="40.0" fill="#6E695A" transform="matrix(1.00, 0.00, -0.00, -1.00, 345.3, 289.0)">h</text><text xml:space="preserve" font-family="Baskerville" font-size="40.0" fill="#6E695A" transform="matrix(1.00, 0.00, -0.00, -1.00, 366.6, 289.0)">e</text><text xml:space="preserve" font-family="Baskerville" font-size="40.0" fill="#6E695A" transform="matrix(1.00, 0.00, -0.00, -1.00, 384.0, 289.0)"> </text><text xml:space="preserve" font-family="Baskerville" font-size="40.0" fill="#6E695A" transform="matrix(1.00, 0.00, -0.00, -1.00, 394.0, 289.0)">P</text><text xml:space="preserve" font-family="Baskerville" font-size="40.0" fill="#6E695A" transform="matrix(1.00, 0.00, -0.00, -1.00, 416.5, 289.0)">r</text><text xml:space="preserve" font-family="Baskerville" font-size="40.0" fill="#6E695A" transform="matrix(1.00, 0.00, -0.00, -1.00, 430.3, 289.0)">o</text><text xml:space="preserve" font-family="Baskerville" font-size="40.0" fill="#6E695A" transform="matrix(1.00, 0.00, -0.00, -1.00, 450.3, 289.0)">c</text><text xml:space="preserve" font-family="Baskerville" font-size="40.0" fill="#6E695A" transform="matrix(1.00, 0.00, -0.00, -1.00, 467.4, 289.0)">e</text><text xml:space="preserve" font-family="Baskerville" font-size="40.0" fill="#6E695A" transform="matrix(1.00, 0.00, -0.00, -1.00, 484.9, 289.0)">e</text><text xml:space="preserve" font-family="Baskerville" font-size="40.0" fill="#6E695A" transform="matrix(1.00, 0.00, -0.00, -1.00, 502.4, 289.0)">d</text><text xml:space="preserve" font-family="Baskerville" font-size="40.0" fill="#6E695A" transform="matrix(1.00, 0.00, -0.00, -1.00, 523.2, 289.0)">i</text><text xml:space="preserve" font-family="Baskerville" font-size="40.0" fill="#6E695A" transform="matrix(1.00, 0.00, -0.00, -1.00, 533.2, 289.0)">n</text><text xml:space="preserve" font-family="Baskerville" font-size="40.0" fill="#6E695A" transform="matrix(1.00, 0.00, -0.00, -1.00, 554.5, 289.0)">g</text><text xml:space="preserve" font-family="Baskerville" font-size="40.0" fill="#6E695A" transform="matrix(1.00, 0.00, -0.00, -1.00, 573.2, 289.0)">s</text><text xml:space="preserve" font-family="Baskerville" font-size="40.0" fill="#6E695A" transform="matrix(1.00, 0.00, -0.00, -1.00, 586.6, 289.0)"> </text><text xml:space="preserve" font-family="Baskerville" font-size="40.0" fill="#6E695A" transform="matrix(1.00, 0.00, -0.00, -1.00, 596.6, 289.0)">o</text><text xml:space="preserve" font-family="Baskerville" font-size="40.0" fill="#6E695A" transform="matrix(1.00, 0.00, -0.00, -1.00, 616.6, 289.0)">f</text><text xml:space="preserve" font-family="Baskerville" font-size="40.0" fill="#6E695A" transform="matrix(1.00, 0.00, -0.00, -1.00, 633.2, 289.0)"> </text><text xml:space="preserve" font-family="Baskerville" font-size="40.0" fill="#6E695A" transform="matrix(1.00, 0.00, -0.00, -1.00, 643.2, 289.0)">t</text><text xml:space="preserve" font-family="Baskerville" font-size="40.0" fill="#6E695A" transform="matrix(1.00, 0.00, -0.00, -1.00, 654.8, 289.0)">h</text><text xml:space="preserve" font-family="Baskerville" font-size="40.0" fill="#6E695A" transform="matrix(1.00, 0.00, -0.00, -1.00, 676.1, 289.0)">e</text><text xml:space="preserve" font-family="Baskerville" font-size="40.0" fill="#6E695A" transform="matrix(1.00, 0.00, -0.00, -1.00, 693.6, 289.0)"> </text><text xml:space="preserve" font-family="Baskerville" font-size="40.0" fill="#6E695A" transform="matrix(1.00, 0.00, -0.00, -1.00, 703.6, 289.0)">C</text><text xml:space="preserve" font-family="Baskerville" font-size="40.0" fill="#6E695A" transform="matrix(1.00, 0.00, -0.00, -1.00, 732.3, 289.0)">o</text><text xml:space="preserve" font-family="Baskerville" font-size="40.0" fill="#6E695A" transform="matrix(1.00, 0.00, -0.00, -1.00, 752.3, 289.0)">n</text><text xml:space="preserve" font-family="Baskerville" font-size="40.0" fill="#6E695A" transform="matrix(1.00, 0.00, -0.00, -1.00, 773.6, 289.0)">t</text><text xml:space="preserve" font-family="Baskerville" font-size="40.0" fill="#6E695A" transform="matrix(1.00, 0.00, -0.00, -1.00, 785.2, 289.0)">i</text><text xml:space="preserve" font-family="Baskerville" font-size="40.0" fill="#6E695A" transform="matrix(1.00, 0.00, -0.00, -1.00, 795.2, 289.0)">n</text><text xml:space="preserve" font-family="Baskerville" font-size="40.0" fill="#6E695A" transform="matrix(1.00, 0.00, -0.00, -1.00, 816.5, 289.0)">e</text><text xml:space="preserve" font-family="Baskerville" font-size="40.0" fill="#6E695A" transform="matrix(1.00, 0.00, -0.00, -1.00, 834.0, 289.0)">n</text><text xml:space="preserve" font-family="Baskerville" font-size="40.0" fill="#6E695A" transform="matrix(1.00, 0.00, -0.00, -1.00, 855.2, 289.0)">t</text><text xml:space="preserve" font-family="Baskerville" font-size="40.0" fill="#6E695A" transform="matrix(1.00, 0.00, -0.00, -1.00, 866.9, 289.0)">a</text><text xml:space="preserve" font-family="Baskerville" font-size="40.0" fill="#6E695A" transform="matrix(1.00, 0.00, -0.00, -1.00, 885.6, 289.0)">l</text><text xml:space="preserve" font-family="Baskerville" font-size="40.0" fill="#6E695A" transform="matrix(1.00, 0.00, -0.00, -1.00, 895.2, 289.0)"> </text><text xml:space="preserve" font-family="Baskerville" font-size="40.0" fill="#6E695A" transform="matrix(1.00, 0.00, -0.00, -1.00, 117.0, 243.0)">C</text><text xml:space="preserve" font-family="Baskerville" font-size="40.0" fill="#6E695A" transform="matrix(1.00, 0.00, -0.00, -1.00, 145.7, 243.0)">o</text><text xml:space="preserve" font-family="Baskerville" font-size="40.0" fill="#6E695A" transform="matrix(1.00, 0.00, -0.00, -1.00, 165.7, 243.0)">n</text><text xml:space="preserve" font-family="Baskerville" font-size="40.0" fill="#6E695A" transform="matrix(1.00, 0.00, -0.00, -1.00, 187.0, 243.0)">g</text><text xml:space="preserve" font-family="Baskerville" font-size="40.0" fill="#6E695A" transform="matrix(1.00, 0.00, -0.00, -1.00, 206.5, 243.0)">r</text><text xml:space="preserve" font-family="Baskerville" font-size="40.0" fill="#6E695A" transform="matrix(1.00, 0.00, -0.00, -1.00, 220.7, 243.0)">e</text><text xml:space="preserve" font-family="Baskerville" font-size="40.0" fill="#6E695A" transform="matrix(1.00, 0.00, -0.00, -1.00, 238.1, 243.0)">s</text><text xml:space="preserve" font-family="Baskerville" font-size="40.0" fill="#6E695A" transform="matrix(1.00, 0.00, -0.00, -1.00, 251.5, 243.0)">s</text><text xml:space="preserve" font-family="Baskerville" font-size="40.0" fill="#6E695A" transform="matrix(1.00, 0.00, -0.00, -1.00, 264.9, 243.0)">"</text><text xml:space="preserve" font-family="Baskerville" font-size="40.0" fill="#6E695A" transform="matrix(1.00, 0.00, -0.00, -1.00, 281.1, 243.0)">.</text></g></svg>