<?xml version="1.0" encoding="UTF-8" standalone="no"?><svg xmlns="http://www.w3.org/2000/svg" xmlns:xlink="http://www.w3.org/1999/xlink" clip-rule="evenodd" stroke-miterlimit="4.00" viewBox="0 0 1024 768"><desc>SVG generated by Keynote</desc><defs></defs><g transform="matrix(1.00, 0.00, -0.00, -1.00, 0.0, 768.0)"><g><clipPath id="clip-29"><path d="M 0.0 768.0 L 1024.0 768.0 L 1024.0 0.0 L 0.0 0.0 Z M 0.0 768.0 "></path></clipPath><g clip-path="url(#clip-29)"><image xlink:href="../../728F471F-F0F7-4562-9F14-EE42852C0F63/assets/E83C1847B2B388C404EB332FEECC4B73.jpeg" width="1024.00" height="768.00" transform="matrix(1.00, 0.00, -0.00, -1.00, 0.0, 768.0)"></image></g></g><text xml:space="preserve" font-family="Copperplate" font-size="78.0" fill="#6E695A" transform="matrix(1.00, 0.00, -0.00, -1.00, 306.0, 632.0)">C</text><text xml:space="preserve" font-family="Copperplate" font-size="78.0" fill="#6E695A" transform="matrix(1.00, 0.00, -0.00, -1.00, 362.3, 632.0)">o</text><text xml:space="preserve" font-family="Copperplate" font-size="78.0" fill="#6E695A" transform="matrix(1.00, 0.00, -0.00, -1.00, 410.0, 632.0)">m</text><text xml:space="preserve" font-family="Copperplate" font-size="78.0" fill="#6E695A" transform="matrix(1.00, 0.00, -0.00, -1.00, 466.3, 632.0)">m</text><text xml:space="preserve" font-family="Copperplate" font-size="78.0" fill="#6E695A" transform="matrix(1.00, 0.00, -0.00, -1.00, 522.6, 632.0)">i</text><text xml:space="preserve" font-family="Copperplate" font-size="78.0" fill="#6E695A" transform="matrix(1.00, 0.00, -0.00, -1.00, 548.6, 632.0)">t</text><text xml:space="preserve" font-family="Copperplate" font-size="78.0" fill="#6E695A" transform="matrix(1.00, 0.00, -0.00, -1.00, 587.6, 632.0)">t</text><text xml:space="preserve" font-family="Copperplate" font-size="78.0" fill="#6E695A" transform="matrix(1.00, 0.00, -0.00, -1.00, 626.6, 632.0)">e</text><text xml:space="preserve" font-family="Copperplate" font-size="78.0" fill="#6E695A" transform="matrix(1.00, 0.00, -0.00, -1.00, 669.9, 632.0)">d</text><text xml:space="preserve" font-family="Baskerville" font-size="40.0" fill="#A19A84" transform="matrix(1.00, 0.00, -0.00, -1.00, 84.0, 441.8)">•</text><text xml:space="preserve" font-family="Baskerville" font-size="40.0" fill="#6E695A" transform="matrix(1.00, 0.00, -0.00, -1.00, 117.0, 442.0)">W</text><text xml:space="preserve" font-family="Baskerville" font-size="40.0" fill="#6E695A" transform="matrix(1.00, 0.00, -0.00, -1.00, 154.9, 442.0)">h</text><text xml:space="preserve" font-family="Baskerville" font-size="40.0" fill="#6E695A" transform="matrix(1.00, 0.00, -0.00, -1.00, 176.2, 442.0)">e</text><text xml:space="preserve" font-family="Baskerville" font-size="40.0" fill="#6E695A" transform="matrix(1.00, 0.00, -0.00, -1.00, 193.6, 442.0)">n</text><text xml:space="preserve" font-family="Baskerville" font-size="40.0" fill="#6E695A" transform="matrix(1.00, 0.00, -0.00, -1.00, 214.9, 442.0)"> </text><text xml:space="preserve" font-family="Baskerville" font-size="40.0" fill="#6E695A" transform="matrix(1.00, 0.00, -0.00, -1.00, 224.9, 442.0)">H</text><text xml:space="preserve" font-family="Baskerville" font-size="40.0" fill="#6E695A" transform="matrix(1.00, 0.00, -0.00, -1.00, 257.0, 442.0)">a</text><text xml:space="preserve" font-family="Baskerville" font-size="40.0" fill="#6E695A" transform="matrix(1.00, 0.00, -0.00, -1.00, 275.7, 442.0)">m</text><text xml:space="preserve" font-family="Baskerville" font-size="40.0" fill="#6E695A" transform="matrix(1.00, 0.00, -0.00, -1.00, 307.8, 442.0)">i</text><text xml:space="preserve" font-family="Baskerville" font-size="40.0" fill="#6E695A" transform="matrix(1.00, 0.00, -0.00, -1.00, 317.8, 442.0)">l</text><text xml:space="preserve" font-family="Baskerville" font-size="40.0" fill="#6E695A" transform="matrix(1.00, 0.00, -0.00, -1.00, 327.4, 442.0)">t</text><text xml:space="preserve" font-family="Baskerville" font-size="40.0" fill="#6E695A" transform="matrix(1.00, 0.00, -0.00, -1.00, 339.1, 442.0)">o</text><text xml:space="preserve" font-family="Baskerville" font-size="40.0" fill="#6E695A" transform="matrix(1.00, 0.00, -0.00, -1.00, 359.1, 442.0)">n</text><text xml:space="preserve" font-family="Baskerville" font-size="40.0" fill="#6E695A" transform="matrix(1.00, 0.00, -0.00, -1.00, 379.2, 442.0)">’</text><text xml:space="preserve" font-family="Baskerville" font-size="40.0" fill="#6E695A" transform="matrix(1.00, 0.00, -0.00, -1.00, 387.7, 442.0)">s</text><text xml:space="preserve" font-family="Baskerville" font-size="40.0" fill="#6E695A" transform="matrix(1.00, 0.00, -0.00, -1.00, 401.1, 442.0)"> </text><text xml:space="preserve" font-family="Baskerville" font-size="40.0" fill="#6E695A" transform="matrix(1.00, 0.00, -0.00, -1.00, 411.1, 442.0)">m</text><text xml:space="preserve" font-family="Baskerville" font-size="40.0" fill="#6E695A" transform="matrix(1.00, 0.00, -0.00, -1.00, 443.2, 442.0)">o</text><text xml:space="preserve" font-family="Baskerville" font-size="40.0" fill="#6E695A" transform="matrix(1.00, 0.00, -0.00, -1.00, 463.2, 442.0)">t</text><text xml:space="preserve" font-family="Baskerville" font-size="40.0" fill="#6E695A" transform="matrix(1.00, 0.00, -0.00, -1.00, 474.8, 442.0)">h</text><text xml:space="preserve" font-family="Baskerville" font-size="40.0" fill="#6E695A" transform="matrix(1.00, 0.00, -0.00, -1.00, 496.1, 442.0)">e</text><text xml:space="preserve" font-family="Baskerville" font-size="40.0" fill="#6E695A" transform="matrix(1.00, 0.00, -0.00, -1.00, 513.6, 442.0)">r</text><text xml:space="preserve" font-family="Baskerville" font-size="40.0" fill="#6E695A" transform="matrix(1.00, 0.00, -0.00, -1.00, 528.1, 442.0)"> </text><text xml:space="preserve" font-family="Baskerville" font-size="40.0" fill="#6E695A" transform="matrix(1.00, 0.00, -0.00, -1.00, 538.1, 442.0)">d</text><text xml:space="preserve" font-family="Baskerville" font-size="40.0" fill="#6E695A" transform="matrix(1.00, 0.00, -0.00, -1.00, 559.0, 442.0)">i</text><text xml:space="preserve" font-family="Baskerville" font-size="40.0" fill="#6E695A" transform="matrix(1.00, 0.00, -0.00, -1.00, 569.0, 442.0)">e</text><text xml:space="preserve" font-family="Baskerville" font-size="40.0" fill="#6E695A" transform="matrix(1.00, 0.00, -0.00, -1.00, 586.5, 442.0)">d</text><text xml:space="preserve" font-family="Baskerville" font-size="40.0" fill="#6E695A" transform="matrix(1.00, 0.00, -0.00, -1.00, 607.3, 442.0)"> </text><text xml:space="preserve" font-family="Baskerville" font-size="40.0" fill="#6E695A" transform="matrix(1.00, 0.00, -0.00, -1.00, 617.3, 442.0)">h</text><text xml:space="preserve" font-family="Baskerville" font-size="40.0" fill="#6E695A" transform="matrix(1.00, 0.00, -0.00, -1.00, 638.6, 442.0)">e</text><text xml:space="preserve" font-family="Baskerville" font-size="40.0" fill="#6E695A" transform="matrix(1.00, 0.00, -0.00, -1.00, 656.0, 442.0)"> </text><text xml:space="preserve" font-family="Baskerville" font-size="40.0" fill="#6E695A" transform="matrix(1.00, 0.00, -0.00, -1.00, 666.0, 442.0)">s</text><text xml:space="preserve" font-family="Baskerville" font-size="40.0" fill="#6E695A" transform="matrix(1.00, 0.00, -0.00, -1.00, 679.4, 442.0)">t</text><text xml:space="preserve" font-family="Baskerville" font-size="40.0" fill="#6E695A" transform="matrix(1.00, 0.00, -0.00, -1.00, 691.0, 442.0)">a</text><text xml:space="preserve" font-family="Baskerville" font-size="40.0" fill="#6E695A" transform="matrix(1.00, 0.00, -0.00, -1.00, 709.8, 442.0)">r</text><text xml:space="preserve" font-family="Baskerville" font-size="40.0" fill="#6E695A" transform="matrix(1.00, 0.00, -0.00, -1.00, 724.4, 442.0)">t</text><text xml:space="preserve" font-family="Baskerville" font-size="40.0" fill="#6E695A" transform="matrix(1.00, 0.00, -0.00, -1.00, 736.0, 442.0)">e</text><text xml:space="preserve" font-family="Baskerville" font-size="40.0" fill="#6E695A" transform="matrix(1.00, 0.00, -0.00, -1.00, 753.5, 442.0)">d</text><text xml:space="preserve" font-family="Baskerville" font-size="40.0" fill="#6E695A" transform="matrix(1.00, 0.00, -0.00, -1.00, 774.3, 442.0)"> </text><text xml:space="preserve" font-family="Baskerville" font-size="40.0" fill="#6E695A" transform="matrix(1.00, 0.00, -0.00, -1.00, 784.3, 442.0)">t</text><text xml:space="preserve" font-family="Baskerville" font-size="40.0" fill="#6E695A" transform="matrix(1.00, 0.00, -0.00, -1.00, 796.0, 442.0)">o</text><text xml:space="preserve" font-family="Baskerville" font-size="40.0" fill="#6E695A" transform="matrix(1.00, 0.00, -0.00, -1.00, 816.0, 442.0)"> </text><text xml:space="preserve" font-family="Baskerville" font-size="40.0" fill="#6E695A" transform="matrix(1.00, 0.00, -0.00, -1.00, 826.0, 442.0)">w</text><text xml:space="preserve" font-family="Baskerville" font-size="40.0" fill="#6E695A" transform="matrix(1.00, 0.00, -0.00, -1.00, 852.7, 442.0)">o</text><text xml:space="preserve" font-family="Baskerville" font-size="40.0" fill="#6E695A" transform="matrix(1.00, 0.00, -0.00, -1.00, 872.7, 442.0)">r</text><text xml:space="preserve" font-family="Baskerville" font-size="40.0" fill="#6E695A" transform="matrix(1.00, 0.00, -0.00, -1.00, 886.5, 442.0)">k</text><text xml:space="preserve" font-family="Baskerville" font-size="40.0" fill="#6E695A" transform="matrix(1.00, 0.00, -0.00, -1.00, 904.8, 442.0)"> </text><text xml:space="preserve" font-family="Baskerville" font-size="40.0" fill="#6E695A" transform="matrix(1.00, 0.00, -0.00, -1.00, 117.0, 396.0)">f</text><text xml:space="preserve" font-family="Baskerville" font-size="40.0" fill="#6E695A" transform="matrix(1.00, 0.00, -0.00, -1.00, 127.4, 396.0)">o</text><text xml:space="preserve" font-family="Baskerville" font-size="40.0" fill="#6E695A" transform="matrix(1.00, 0.00, -0.00, -1.00, 147.4, 396.0)">r</text><text xml:space="preserve" font-family="Baskerville" font-size="40.0" fill="#6E695A" transform="matrix(1.00, 0.00, -0.00, -1.00, 162.0, 396.0)"> </text><text xml:space="preserve" font-family="Baskerville" font-size="40.0" fill="#6E695A" transform="matrix(1.00, 0.00, -0.00, -1.00, 172.0, 396.0)">h</text><text xml:space="preserve" font-family="Baskerville" font-size="40.0" fill="#6E695A" transform="matrix(1.00, 0.00, -0.00, -1.00, 193.3, 396.0)">i</text><text xml:space="preserve" font-family="Baskerville" font-size="40.0" fill="#6E695A" transform="matrix(1.00, 0.00, -0.00, -1.00, 203.3, 396.0)">s</text><text xml:space="preserve" font-family="Baskerville" font-size="40.0" fill="#6E695A" transform="matrix(1.00, 0.00, -0.00, -1.00, 216.6, 396.0)"> </text><text xml:space="preserve" font-family="Baskerville" font-size="40.0" fill="#6E695A" transform="matrix(1.00, 0.00, -0.00, -1.00, 226.6, 396.0)">m</text><text xml:space="preserve" font-family="Baskerville" font-size="40.0" fill="#6E695A" transform="matrix(1.00, 0.00, -0.00, -1.00, 258.7, 396.0)">o</text><text xml:space="preserve" font-family="Baskerville" font-size="40.0" fill="#6E695A" transform="matrix(1.00, 0.00, -0.00, -1.00, 278.7, 396.0)">t</text><text xml:space="preserve" font-family="Baskerville" font-size="40.0" fill="#6E695A" transform="matrix(1.00, 0.00, -0.00, -1.00, 290.4, 396.0)">h</text><text xml:space="preserve" font-family="Baskerville" font-size="40.0" fill="#6E695A" transform="matrix(1.00, 0.00, -0.00, -1.00, 311.6, 396.0)">e</text><text xml:space="preserve" font-family="Baskerville" font-size="40.0" fill="#6E695A" transform="matrix(1.00, 0.00, -0.00, -1.00, 329.1, 396.0)">r</text><text xml:space="preserve" font-family="Baskerville" font-size="40.0" fill="#6E695A" transform="matrix(1.00, 0.00, -0.00, -1.00, 343.7, 396.0)">’</text><text xml:space="preserve" font-family="Baskerville" font-size="40.0" fill="#6E695A" transform="matrix(1.00, 0.00, -0.00, -1.00, 352.2, 396.0)">s</text><text xml:space="preserve" font-family="Baskerville" font-size="40.0" fill="#6E695A" transform="matrix(1.00, 0.00, -0.00, -1.00, 365.6, 396.0)"> </text><text xml:space="preserve" font-family="Baskerville" font-size="40.0" fill="#6E695A" transform="matrix(1.00, 0.00, -0.00, -1.00, 375.6, 396.0)">l</text><text xml:space="preserve" font-family="Baskerville" font-size="40.0" fill="#6E695A" transform="matrix(1.00, 0.00, -0.00, -1.00, 385.2, 396.0)">a</text><text xml:space="preserve" font-family="Baskerville" font-size="40.0" fill="#6E695A" transform="matrix(1.00, 0.00, -0.00, -1.00, 403.9, 396.0)">n</text><text xml:space="preserve" font-family="Baskerville" font-size="40.0" fill="#6E695A" transform="matrix(1.00, 0.00, -0.00, -1.00, 425.2, 396.0)">d</text><text xml:space="preserve" font-family="Baskerville" font-size="40.0" fill="#6E695A" transform="matrix(1.00, 0.00, -0.00, -1.00, 446.0, 396.0)">l</text><text xml:space="preserve" font-family="Baskerville" font-size="40.0" fill="#6E695A" transform="matrix(1.00, 0.00, -0.00, -1.00, 455.6, 396.0)">o</text><text xml:space="preserve" font-family="Baskerville" font-size="40.0" fill="#6E695A" transform="matrix(1.00, 0.00, -0.00, -1.00, 475.6, 396.0)">r</text><text xml:space="preserve" font-family="Baskerville" font-size="40.0" fill="#6E695A" transform="matrix(1.00, 0.00, -0.00, -1.00, 489.8, 396.0)">d</text><text xml:space="preserve" font-family="Baskerville" font-size="40.0" fill="#6E695A" transform="matrix(1.00, 0.00, -0.00, -1.00, 510.6, 396.0)"> </text><text xml:space="preserve" font-family="Baskerville" font-size="40.0" fill="#6E695A" transform="matrix(1.00, 0.00, -0.00, -1.00, 520.6, 396.0)">t</text><text xml:space="preserve" font-family="Baskerville" font-size="40.0" fill="#6E695A" transform="matrix(1.00, 0.00, -0.00, -1.00, 532.2, 396.0)">o</text><text xml:space="preserve" font-family="Baskerville" font-size="40.0" fill="#6E695A" transform="matrix(1.00, 0.00, -0.00, -1.00, 552.2, 396.0)"> </text><text xml:space="preserve" font-family="Baskerville" font-size="40.0" fill="#6E695A" transform="matrix(1.00, 0.00, -0.00, -1.00, 562.2, 396.0)">e</text><text xml:space="preserve" font-family="Baskerville" font-size="40.0" fill="#6E695A" transform="matrix(1.00, 0.00, -0.00, -1.00, 579.7, 396.0)">a</text><text xml:space="preserve" font-family="Baskerville" font-size="40.0" fill="#6E695A" transform="matrix(1.00, 0.00, -0.00, -1.00, 598.5, 396.0)">r</text><text xml:space="preserve" font-family="Baskerville" font-size="40.0" fill="#6E695A" transform="matrix(1.00, 0.00, -0.00, -1.00, 614.1, 396.0)">n</text><text xml:space="preserve" font-family="Baskerville" font-size="40.0" fill="#6E695A" transform="matrix(1.00, 0.00, -0.00, -1.00, 635.4, 396.0)"> </text><text xml:space="preserve" font-family="Baskerville" font-size="40.0" fill="#6E695A" transform="matrix(1.00, 0.00, -0.00, -1.00, 645.4, 396.0)">m</text><text xml:space="preserve" font-family="Baskerville" font-size="40.0" fill="#6E695A" transform="matrix(1.00, 0.00, -0.00, -1.00, 677.5, 396.0)">o</text><text xml:space="preserve" font-family="Baskerville" font-size="40.0" fill="#6E695A" transform="matrix(1.00, 0.00, -0.00, -1.00, 697.5, 396.0)">n</text><text xml:space="preserve" font-family="Baskerville" font-size="40.0" fill="#6E695A" transform="matrix(1.00, 0.00, -0.00, -1.00, 718.7, 396.0)">e</text><text xml:space="preserve" font-family="Baskerville" font-size="40.0" fill="#6E695A" transform="matrix(1.00, 0.00, -0.00, -1.00, 735.5, 396.0)">y</text><text xml:space="preserve" font-family="Baskerville" font-size="40.0" fill="#6E695A" transform="matrix(1.00, 0.00, -0.00, -1.00, 748.7, 396.0)">.</text><text xml:space="preserve" font-family="Baskerville" font-size="40.0" fill="#6E695A" transform="matrix(1.00, 0.00, -0.00, -1.00, 758.7, 396.0)"> </text><text xml:space="preserve" font-family="Baskerville" font-size="40.0" fill="#A19A84" transform="matrix(1.00, 0.00, -0.00, -1.00, 84.0, 319.8)">•</text><text xml:space="preserve" font-family="Baskerville" font-size="40.0" fill="#6E695A" transform="matrix(1.00, 0.00, -0.00, -1.00, 117.0, 320.0)">L</text><text xml:space="preserve" font-family="Baskerville" font-size="40.0" fill="#6E695A" transform="matrix(1.00, 0.00, -0.00, -1.00, 141.2, 320.0)">a</text><text xml:space="preserve" font-family="Baskerville" font-size="40.0" fill="#6E695A" transform="matrix(1.00, 0.00, -0.00, -1.00, 159.5, 320.0)">t</text><text xml:space="preserve" font-family="Baskerville" font-size="40.0" fill="#6E695A" transform="matrix(1.00, 0.00, -0.00, -1.00, 171.2, 320.0)">e</text><text xml:space="preserve" font-family="Baskerville" font-size="40.0" fill="#6E695A" transform="matrix(1.00, 0.00, -0.00, -1.00, 188.6, 320.0)">r</text><text xml:space="preserve" font-family="Baskerville" font-size="40.0" fill="#6E695A" transform="matrix(1.00, 0.00, -0.00, -1.00, 203.2, 320.0)"> </text><text xml:space="preserve" font-family="Baskerville" font-size="40.0" fill="#6E695A" transform="matrix(1.00, 0.00, -0.00, -1.00, 213.2, 320.0)">i</text><text xml:space="preserve" font-family="Baskerville" font-size="40.0" fill="#6E695A" transform="matrix(1.00, 0.00, -0.00, -1.00, 223.2, 320.0)">n</text><text xml:space="preserve" font-family="Baskerville" font-size="40.0" fill="#6E695A" transform="matrix(1.00, 0.00, -0.00, -1.00, 244.5, 320.0)"> </text><text xml:space="preserve" font-family="Baskerville" font-size="40.0" fill="#6E695A" transform="matrix(1.00, 0.00, -0.00, -1.00, 254.5, 320.0)">l</text><text xml:space="preserve" font-family="Baskerville" font-size="40.0" fill="#6E695A" transform="matrix(1.00, 0.00, -0.00, -1.00, 264.0, 320.0)">i</text><text xml:space="preserve" font-family="Baskerville" font-size="40.0" fill="#6E695A" transform="matrix(1.00, 0.00, -0.00, -1.00, 274.0, 320.0)">f</text><text xml:space="preserve" font-family="Baskerville" font-size="40.0" fill="#6E695A" transform="matrix(1.00, 0.00, -0.00, -1.00, 284.9, 320.0)">e</text><text xml:space="preserve" font-family="Baskerville" font-size="40.0" fill="#6E695A" transform="matrix(1.00, 0.00, -0.00, -1.00, 302.4, 320.0)"> </text><text xml:space="preserve" font-family="Baskerville" font-size="40.0" fill="#6E695A" transform="matrix(1.00, 0.00, -0.00, -1.00, 312.4, 320.0)">h</text><text xml:space="preserve" font-family="Baskerville" font-size="40.0" fill="#6E695A" transform="matrix(1.00, 0.00, -0.00, -1.00, 333.6, 320.0)">e</text><text xml:space="preserve" font-family="Baskerville" font-size="40.0" fill="#6E695A" transform="matrix(1.00, 0.00, -0.00, -1.00, 351.1, 320.0)"> </text><text xml:space="preserve" font-family="Baskerville" font-size="40.0" fill="#6E695A" transform="matrix(1.00, 0.00, -0.00, -1.00, 361.1, 320.0)">w</text><text xml:space="preserve" font-family="Baskerville" font-size="40.0" fill="#6E695A" transform="matrix(1.00, 0.00, -0.00, -1.00, 388.2, 320.0)">a</text><text xml:space="preserve" font-family="Baskerville" font-size="40.0" fill="#6E695A" transform="matrix(1.00, 0.00, -0.00, -1.00, 406.9, 320.0)">s</text><text xml:space="preserve" font-family="Baskerville" font-size="40.0" fill="#6E695A" transform="matrix(1.00, 0.00, -0.00, -1.00, 420.3, 320.0)"> </text><text xml:space="preserve" font-family="Baskerville" font-size="40.0" fill="#6E695A" transform="matrix(1.00, 0.00, -0.00, -1.00, 430.3, 320.0)">c</text><text xml:space="preserve" font-family="Baskerville" font-size="40.0" fill="#6E695A" transform="matrix(1.00, 0.00, -0.00, -1.00, 447.4, 320.0)">o</text><text xml:space="preserve" font-family="Baskerville" font-size="40.0" fill="#6E695A" transform="matrix(1.00, 0.00, -0.00, -1.00, 467.4, 320.0)">m</text><text xml:space="preserve" font-family="Baskerville" font-size="40.0" fill="#6E695A" transform="matrix(1.00, 0.00, -0.00, -1.00, 499.5, 320.0)">m</text><text xml:space="preserve" font-family="Baskerville" font-size="40.0" fill="#6E695A" transform="matrix(1.00, 0.00, -0.00, -1.00, 531.6, 320.0)">i</text><text xml:space="preserve" font-family="Baskerville" font-size="40.0" fill="#6E695A" transform="matrix(1.00, 0.00, -0.00, -1.00, 541.6, 320.0)">t</text><text xml:space="preserve" font-family="Baskerville" font-size="40.0" fill="#6E695A" transform="matrix(1.00, 0.00, -0.00, -1.00, 553.2, 320.0)">t</text><text xml:space="preserve" font-family="Baskerville" font-size="40.0" fill="#6E695A" transform="matrix(1.00, 0.00, -0.00, -1.00, 564.9, 320.0)">e</text><text xml:space="preserve" font-family="Baskerville" font-size="40.0" fill="#6E695A" transform="matrix(1.00, 0.00, -0.00, -1.00, 582.4, 320.0)">d</text><text xml:space="preserve" font-family="Baskerville" font-size="40.0" fill="#6E695A" transform="matrix(1.00, 0.00, -0.00, -1.00, 603.2, 320.0)"> </text><text xml:space="preserve" font-family="Baskerville" font-size="40.0" fill="#6E695A" transform="matrix(1.00, 0.00, -0.00, -1.00, 613.2, 320.0)">t</text><text xml:space="preserve" font-family="Baskerville" font-size="40.0" fill="#6E695A" transform="matrix(1.00, 0.00, -0.00, -1.00, 624.8, 320.0)">o</text><text xml:space="preserve" font-family="Baskerville" font-size="40.0" fill="#6E695A" transform="matrix(1.00, 0.00, -0.00, -1.00, 644.8, 320.0)"> </text><text xml:space="preserve" font-family="Baskerville" font-size="40.0" fill="#6E695A" transform="matrix(1.00, 0.00, -0.00, -1.00, 654.8, 320.0)">h</text><text xml:space="preserve" font-family="Baskerville" font-size="40.0" fill="#6E695A" transform="matrix(1.00, 0.00, -0.00, -1.00, 676.1, 320.0)">i</text><text xml:space="preserve" font-family="Baskerville" font-size="40.0" fill="#6E695A" transform="matrix(1.00, 0.00, -0.00, -1.00, 686.1, 320.0)">s</text><text xml:space="preserve" font-family="Baskerville" font-size="40.0" fill="#6E695A" transform="matrix(1.00, 0.00, -0.00, -1.00, 699.5, 320.0)"> </text><text xml:space="preserve" font-family="Baskerville" font-size="40.0" fill="#6E695A" transform="matrix(1.00, 0.00, -0.00, -1.00, 709.5, 320.0)">w</text><text xml:space="preserve" font-family="Baskerville" font-size="40.0" fill="#6E695A" transform="matrix(1.00, 0.00, -0.00, -1.00, 736.2, 320.0)">o</text><text xml:space="preserve" font-family="Baskerville" font-size="40.0" fill="#6E695A" transform="matrix(1.00, 0.00, -0.00, -1.00, 756.2, 320.0)">r</text><text xml:space="preserve" font-family="Baskerville" font-size="40.0" fill="#6E695A" transform="matrix(1.00, 0.00, -0.00, -1.00, 770.0, 320.0)">k</text><text xml:space="preserve" font-family="Baskerville" font-size="40.0" fill="#6E695A" transform="matrix(1.00, 0.00, -0.00, -1.00, 788.3, 320.0)"> </text><text xml:space="preserve" font-family="Baskerville" font-size="40.0" fill="#6E695A" transform="matrix(1.00, 0.00, -0.00, -1.00, 798.3, 320.0)">m</text><text xml:space="preserve" font-family="Baskerville" font-size="40.0" fill="#6E695A" transform="matrix(1.00, 0.00, -0.00, -1.00, 830.4, 320.0)">a</text><text xml:space="preserve" font-family="Baskerville" font-size="40.0" fill="#6E695A" transform="matrix(1.00, 0.00, -0.00, -1.00, 849.2, 320.0)">n</text><text xml:space="preserve" font-family="Baskerville" font-size="40.0" fill="#6E695A" transform="matrix(1.00, 0.00, -0.00, -1.00, 869.7, 320.0)">y</text><text xml:space="preserve" font-family="Baskerville" font-size="40.0" fill="#6E695A" transform="matrix(1.00, 0.00, -0.00, -1.00, 888.0, 320.0)"> </text><text xml:space="preserve" font-family="Baskerville" font-size="40.0" fill="#6E695A" transform="matrix(1.00, 0.00, -0.00, -1.00, 117.0, 274.0)">t</text><text xml:space="preserve" font-family="Baskerville" font-size="40.0" fill="#6E695A" transform="matrix(1.00, 0.00, -0.00, -1.00, 128.6, 274.0)">i</text><text xml:space="preserve" font-family="Baskerville" font-size="40.0" fill="#6E695A" transform="matrix(1.00, 0.00, -0.00, -1.00, 138.6, 274.0)">m</text><text xml:space="preserve" font-family="Baskerville" font-size="40.0" fill="#6E695A" transform="matrix(1.00, 0.00, -0.00, -1.00, 170.7, 274.0)">e</text><text xml:space="preserve" font-family="Baskerville" font-size="40.0" fill="#6E695A" transform="matrix(1.00, 0.00, -0.00, -1.00, 188.2, 274.0)">s</text><text xml:space="preserve" font-family="Baskerville" font-size="40.0" fill="#6E695A" transform="matrix(1.00, 0.00, -0.00, -1.00, 201.6, 274.0)"> </text><text xml:space="preserve" font-family="Baskerville" font-size="40.0" fill="#6E695A" transform="matrix(1.00, 0.00, -0.00, -1.00, 211.6, 274.0)">a</text><text xml:space="preserve" font-family="Baskerville" font-size="40.0" fill="#6E695A" transform="matrix(1.00, 0.00, -0.00, -1.00, 230.3, 274.0)">n</text><text xml:space="preserve" font-family="Baskerville" font-size="40.0" fill="#6E695A" transform="matrix(1.00, 0.00, -0.00, -1.00, 251.6, 274.0)">d</text><text xml:space="preserve" font-family="Baskerville" font-size="40.0" fill="#6E695A" transform="matrix(1.00, 0.00, -0.00, -1.00, 272.4, 274.0)"> </text><text xml:space="preserve" font-family="Baskerville" font-size="40.0" fill="#6E695A" transform="matrix(1.00, 0.00, -0.00, -1.00, 282.4, 274.0)">w</text><text xml:space="preserve" font-family="Baskerville" font-size="40.0" fill="#6E695A" transform="matrix(1.00, 0.00, -0.00, -1.00, 309.1, 274.0)">o</text><text xml:space="preserve" font-family="Baskerville" font-size="40.0" fill="#6E695A" transform="matrix(1.00, 0.00, -0.00, -1.00, 329.1, 274.0)">u</text><text xml:space="preserve" font-family="Baskerville" font-size="40.0" fill="#6E695A" transform="matrix(1.00, 0.00, -0.00, -1.00, 350.0, 274.0)">l</text><text xml:space="preserve" font-family="Baskerville" font-size="40.0" fill="#6E695A" transform="matrix(1.00, 0.00, -0.00, -1.00, 359.5, 274.0)">d</text><text xml:space="preserve" font-family="Baskerville" font-size="40.0" fill="#6E695A" transform="matrix(1.00, 0.00, -0.00, -1.00, 380.4, 274.0)"> </text><text xml:space="preserve" font-family="Baskerville" font-size="40.0" fill="#6E695A" transform="matrix(1.00, 0.00, -0.00, -1.00, 390.4, 274.0)">s</text><text xml:space="preserve" font-family="Baskerville" font-size="40.0" fill="#6E695A" transform="matrix(1.00, 0.00, -0.00, -1.00, 403.7, 274.0)">t</text><text xml:space="preserve" font-family="Baskerville" font-size="40.0" fill="#6E695A" transform="matrix(1.00, 0.00, -0.00, -1.00, 415.4, 274.0)">a</text><text xml:space="preserve" font-family="Baskerville" font-size="40.0" fill="#6E695A" transform="matrix(1.00, 0.00, -0.00, -1.00, 433.7, 274.0)">y</text><text xml:space="preserve" font-family="Baskerville" font-size="40.0" fill="#6E695A" transform="matrix(1.00, 0.00, -0.00, -1.00, 452.1, 274.0)"> </text><text xml:space="preserve" font-family="Baskerville" font-size="40.0" fill="#6E695A" transform="matrix(1.00, 0.00, -0.00, -1.00, 462.1, 274.0)">u</text><text xml:space="preserve" font-family="Baskerville" font-size="40.0" fill="#6E695A" transform="matrix(1.00, 0.00, -0.00, -1.00, 482.9, 274.0)">p</text><text xml:space="preserve" font-family="Baskerville" font-size="40.0" fill="#6E695A" transform="matrix(1.00, 0.00, -0.00, -1.00, 503.8, 274.0)"> </text><text xml:space="preserve" font-family="Baskerville" font-size="40.0" fill="#6E695A" transform="matrix(1.00, 0.00, -0.00, -1.00, 513.8, 274.0)">t</text><text xml:space="preserve" font-family="Baskerville" font-size="40.0" fill="#6E695A" transform="matrix(1.00, 0.00, -0.00, -1.00, 525.4, 274.0)">h</text><text xml:space="preserve" font-family="Baskerville" font-size="40.0" fill="#6E695A" transform="matrix(1.00, 0.00, -0.00, -1.00, 546.7, 274.0)">r</text><text xml:space="preserve" font-family="Baskerville" font-size="40.0" fill="#6E695A" transform="matrix(1.00, 0.00, -0.00, -1.00, 560.5, 274.0)">o</text><text xml:space="preserve" font-family="Baskerville" font-size="40.0" fill="#6E695A" transform="matrix(1.00, 0.00, -0.00, -1.00, 580.5, 274.0)">u</text><text xml:space="preserve" font-family="Baskerville" font-size="40.0" fill="#6E695A" transform="matrix(1.00, 0.00, -0.00, -1.00, 601.3, 274.0)">g</text><text xml:space="preserve" font-family="Baskerville" font-size="40.0" fill="#6E695A" transform="matrix(1.00, 0.00, -0.00, -1.00, 620.1, 274.0)">h</text><text xml:space="preserve" font-family="Baskerville" font-size="40.0" fill="#6E695A" transform="matrix(1.00, 0.00, -0.00, -1.00, 641.3, 274.0)"> </text><text xml:space="preserve" font-family="Baskerville" font-size="40.0" fill="#6E695A" transform="matrix(1.00, 0.00, -0.00, -1.00, 651.3, 274.0)">t</text><text xml:space="preserve" font-family="Baskerville" font-size="40.0" fill="#6E695A" transform="matrix(1.00, 0.00, -0.00, -1.00, 663.0, 274.0)">h</text><text xml:space="preserve" font-family="Baskerville" font-size="40.0" fill="#6E695A" transform="matrix(1.00, 0.00, -0.00, -1.00, 684.2, 274.0)">e</text><text xml:space="preserve" font-family="Baskerville" font-size="40.0" fill="#6E695A" transform="matrix(1.00, 0.00, -0.00, -1.00, 701.7, 274.0)"> </text><text xml:space="preserve" font-family="Baskerville" font-size="40.0" fill="#6E695A" transform="matrix(1.00, 0.00, -0.00, -1.00, 711.7, 274.0)">n</text><text xml:space="preserve" font-family="Baskerville" font-size="40.0" fill="#6E695A" transform="matrix(1.00, 0.00, -0.00, -1.00, 733.0, 274.0)">i</text><text xml:space="preserve" font-family="Baskerville" font-size="40.0" fill="#6E695A" transform="matrix(1.00, 0.00, -0.00, -1.00, 743.0, 274.0)">g</text><text xml:space="preserve" font-family="Baskerville" font-size="40.0" fill="#6E695A" transform="matrix(1.00, 0.00, -0.00, -1.00, 761.7, 274.0)">h</text><text xml:space="preserve" font-family="Baskerville" font-size="40.0" fill="#6E695A" transform="matrix(1.00, 0.00, -0.00, -1.00, 783.0, 274.0)">t</text><text xml:space="preserve" font-family="Baskerville" font-size="40.0" fill="#6E695A" transform="matrix(1.00, 0.00, -0.00, -1.00, 794.6, 274.0)"> </text><text xml:space="preserve" font-family="Baskerville" font-size="40.0" fill="#6E695A" transform="matrix(1.00, 0.00, -0.00, -1.00, 804.6, 274.0)">w</text><text xml:space="preserve" font-family="Baskerville" font-size="40.0" fill="#6E695A" transform="matrix(1.00, 0.00, -0.00, -1.00, 831.3, 274.0)">o</text><text xml:space="preserve" font-family="Baskerville" font-size="40.0" fill="#6E695A" transform="matrix(1.00, 0.00, -0.00, -1.00, 851.3, 274.0)">r</text><text xml:space="preserve" font-family="Baskerville" font-size="40.0" fill="#6E695A" transform="matrix(1.00, 0.00, -0.00, -1.00, 865.1, 274.0)">k</text><text xml:space="preserve" font-family="Baskerville" font-size="40.0" fill="#6E695A" transform="matrix(1.00, 0.00, -0.00, -1.00, 883.5, 274.0)">i</text><text xml:space="preserve" font-family="Baskerville" font-size="40.0" fill="#6E695A" transform="matrix(1.00, 0.00, -0.00, -1.00, 893.5, 274.0)">n</text><text xml:space="preserve" font-family="Baskerville" font-size="40.0" fill="#6E695A" transform="matrix(1.00, 0.00, -0.00, -1.00, 914.8, 274.0)">g</text><text xml:space="preserve" font-family="Baskerville" font-size="40.0" fill="#6E695A" transform="matrix(1.00, 0.00, -0.00, -1.00, 933.5, 274.0)"> </text><text xml:space="preserve" font-family="Baskerville" font-size="40.0" fill="#6E695A" transform="matrix(1.00, 0.00, -0.00, -1.00, 117.0, 228.0)">o</text><text xml:space="preserve" font-family="Baskerville" font-size="40.0" fill="#6E695A" transform="matrix(1.00, 0.00, -0.00, -1.00, 137.0, 228.0)">n</text><text xml:space="preserve" font-family="Baskerville" font-size="40.0" fill="#6E695A" transform="matrix(1.00, 0.00, -0.00, -1.00, 158.3, 228.0)"> </text><text xml:space="preserve" font-family="Baskerville" font-size="40.0" fill="#6E695A" transform="matrix(1.00, 0.00, -0.00, -1.00, 168.3, 228.0)">e</text><text xml:space="preserve" font-family="Baskerville" font-size="40.0" fill="#6E695A" transform="matrix(1.00, 0.00, -0.00, -1.00, 185.7, 228.0)">s</text><text xml:space="preserve" font-family="Baskerville" font-size="40.0" fill="#6E695A" transform="matrix(1.00, 0.00, -0.00, -1.00, 199.1, 228.0)">s</text><text xml:space="preserve" font-family="Baskerville" font-size="40.0" fill="#6E695A" transform="matrix(1.00, 0.00, -0.00, -1.00, 212.5, 228.0)">a</text><text xml:space="preserve" font-family="Baskerville" font-size="40.0" fill="#6E695A" transform="matrix(1.00, 0.00, -0.00, -1.00, 230.8, 228.0)">y</text><text xml:space="preserve" font-family="Baskerville" font-size="40.0" fill="#6E695A" transform="matrix(1.00, 0.00, -0.00, -1.00, 249.2, 228.0)">s</text><text xml:space="preserve" font-family="Baskerville" font-size="40.0" fill="#6E695A" transform="matrix(1.00, 0.00, -0.00, -1.00, 262.5, 228.0)"> </text><text xml:space="preserve" font-family="Baskerville" font-size="40.0" fill="#6E695A" transform="matrix(1.00, 0.00, -0.00, -1.00, 272.5, 228.0)">a</text><text xml:space="preserve" font-family="Baskerville" font-size="40.0" fill="#6E695A" transform="matrix(1.00, 0.00, -0.00, -1.00, 291.3, 228.0)">n</text><text xml:space="preserve" font-family="Baskerville" font-size="40.0" fill="#6E695A" transform="matrix(1.00, 0.00, -0.00, -1.00, 312.5, 228.0)">d</text><text xml:space="preserve" font-family="Baskerville" font-size="40.0" fill="#6E695A" transform="matrix(1.00, 0.00, -0.00, -1.00, 333.4, 228.0)"> </text><text xml:space="preserve" font-family="Baskerville" font-size="40.0" fill="#6E695A" transform="matrix(1.00, 0.00, -0.00, -1.00, 343.4, 228.0)">a</text><text xml:space="preserve" font-family="Baskerville" font-size="40.0" fill="#6E695A" transform="matrix(1.00, 0.00, -0.00, -1.00, 362.1, 228.0)">r</text><text xml:space="preserve" font-family="Baskerville" font-size="40.0" fill="#6E695A" transform="matrix(1.00, 0.00, -0.00, -1.00, 376.7, 228.0)">t</text><text xml:space="preserve" font-family="Baskerville" font-size="40.0" fill="#6E695A" transform="matrix(1.00, 0.00, -0.00, -1.00, 388.3, 228.0)">i</text><text xml:space="preserve" font-family="Baskerville" font-size="40.0" fill="#6E695A" transform="matrix(1.00, 0.00, -0.00, -1.00, 398.3, 228.0)">c</text><text xml:space="preserve" font-family="Baskerville" font-size="40.0" fill="#6E695A" transform="matrix(1.00, 0.00, -0.00, -1.00, 415.4, 228.0)">l</text><text xml:space="preserve" font-family="Baskerville" font-size="40.0" fill="#6E695A" transform="matrix(1.00, 0.00, -0.00, -1.00, 425.0, 228.0)">e</text><text xml:space="preserve" font-family="Baskerville" font-size="40.0" fill="#6E695A" transform="matrix(1.00, 0.00, -0.00, -1.00, 442.5, 228.0)">s</text><text xml:space="preserve" font-family="Baskerville" font-size="40.0" fill="#6E695A" transform="matrix(1.00, 0.00, -0.00, -1.00, 455.1, 228.0)">,</text><text xml:space="preserve" font-family="Baskerville" font-size="40.0" fill="#6E695A" transform="matrix(1.00, 0.00, -0.00, -1.00, 465.1, 228.0)"> </text><text xml:space="preserve" font-family="Baskerville" font-size="40.0" fill="#6E695A" transform="matrix(1.00, 0.00, -0.00, -1.00, 475.1, 228.0)">a</text><text xml:space="preserve" font-family="Baskerville" font-size="40.0" fill="#6E695A" transform="matrix(1.00, 0.00, -0.00, -1.00, 493.8, 228.0)">l</text><text xml:space="preserve" font-family="Baskerville" font-size="40.0" fill="#6E695A" transform="matrix(1.00, 0.00, -0.00, -1.00, 503.4, 228.0)">o</text><text xml:space="preserve" font-family="Baskerville" font-size="40.0" fill="#6E695A" transform="matrix(1.00, 0.00, -0.00, -1.00, 523.4, 228.0)">n</text><text xml:space="preserve" font-family="Baskerville" font-size="40.0" fill="#6E695A" transform="matrix(1.00, 0.00, -0.00, -1.00, 544.7, 228.0)">g</text><text xml:space="preserve" font-family="Baskerville" font-size="40.0" fill="#6E695A" transform="matrix(1.00, 0.00, -0.00, -1.00, 563.4, 228.0)"> </text><text xml:space="preserve" font-family="Baskerville" font-size="40.0" fill="#6E695A" transform="matrix(1.00, 0.00, -0.00, -1.00, 573.4, 228.0)">w</text><text xml:space="preserve" font-family="Baskerville" font-size="40.0" fill="#6E695A" transform="matrix(1.00, 0.00, -0.00, -1.00, 600.5, 228.0)">i</text><text xml:space="preserve" font-family="Baskerville" font-size="40.0" fill="#6E695A" transform="matrix(1.00, 0.00, -0.00, -1.00, 610.5, 228.0)">t</text><text xml:space="preserve" font-family="Baskerville" font-size="40.0" fill="#6E695A" transform="matrix(1.00, 0.00, -0.00, -1.00, 622.1, 228.0)">h</text><text xml:space="preserve" font-family="Baskerville" font-size="40.0" fill="#6E695A" transform="matrix(1.00, 0.00, -0.00, -1.00, 643.4, 228.0)"> </text><text xml:space="preserve" font-family="Baskerville" font-size="40.0" fill="#6E695A" transform="matrix(1.00, 0.00, -0.00, -1.00, 653.4, 228.0)">d</text><text xml:space="preserve" font-family="Baskerville" font-size="40.0" fill="#6E695A" transform="matrix(1.00, 0.00, -0.00, -1.00, 674.2, 228.0)">e</text><text xml:space="preserve" font-family="Baskerville" font-size="40.0" fill="#6E695A" transform="matrix(1.00, 0.00, -0.00, -1.00, 691.7, 228.0)">b</text><text xml:space="preserve" font-family="Baskerville" font-size="40.0" fill="#6E695A" transform="matrix(1.00, 0.00, -0.00, -1.00, 712.6, 228.0)">a</text><text xml:space="preserve" font-family="Baskerville" font-size="40.0" fill="#6E695A" transform="matrix(1.00, 0.00, -0.00, -1.00, 730.9, 228.0)">t</text><text xml:space="preserve" font-family="Baskerville" font-size="40.0" fill="#6E695A" transform="matrix(1.00, 0.00, -0.00, -1.00, 742.5, 228.0)">e</text><text xml:space="preserve" font-family="Baskerville" font-size="40.0" fill="#6E695A" transform="matrix(1.00, 0.00, -0.00, -1.00, 760.0, 228.0)"> </text><text xml:space="preserve" font-family="Baskerville" font-size="40.0" fill="#6E695A" transform="matrix(1.00, 0.00, -0.00, -1.00, 770.0, 228.0)">s</text><text xml:space="preserve" font-family="Baskerville" font-size="40.0" fill="#6E695A" transform="matrix(1.00, 0.00, -0.00, -1.00, 783.4, 228.0)">t</text><text xml:space="preserve" font-family="Baskerville" font-size="40.0" fill="#6E695A" transform="matrix(1.00, 0.00, -0.00, -1.00, 795.0, 228.0)">r</text><text xml:space="preserve" font-family="Baskerville" font-size="40.0" fill="#6E695A" transform="matrix(1.00, 0.00, -0.00, -1.00, 809.6, 228.0)">a</text><text xml:space="preserve" font-family="Baskerville" font-size="40.0" fill="#6E695A" transform="matrix(1.00, 0.00, -0.00, -1.00, 828.0, 228.0)">t</text><text xml:space="preserve" font-family="Baskerville" font-size="40.0" fill="#6E695A" transform="matrix(1.00, 0.00, -0.00, -1.00, 839.6, 228.0)">e</text><text xml:space="preserve" font-family="Baskerville" font-size="40.0" fill="#6E695A" transform="matrix(1.00, 0.00, -0.00, -1.00, 857.1, 228.0)">g</text><text xml:space="preserve" font-family="Baskerville" font-size="40.0" fill="#6E695A" transform="matrix(1.00, 0.00, -0.00, -1.00, 875.8, 228.0)">i</text><text xml:space="preserve" font-family="Baskerville" font-size="40.0" fill="#6E695A" transform="matrix(1.00, 0.00, -0.00, -1.00, 885.8, 228.0)">e</text><text xml:space="preserve" font-family="Baskerville" font-size="40.0" fill="#6E695A" transform="matrix(1.00, 0.00, -0.00, -1.00, 903.3, 228.0)">s</text><text xml:space="preserve" font-family="Baskerville" font-size="40.0" fill="#6E695A" transform="matrix(1.00, 0.00, -0.00, -1.00, 916.7, 228.0)"> </text><text xml:space="preserve" font-family="Baskerville" font-size="40.0" fill="#6E695A" transform="matrix(1.00, 0.00, -0.00, -1.00, 117.0, 182.0)">a</text><text xml:space="preserve" font-family="Baskerville" font-size="40.0" fill="#6E695A" transform="matrix(1.00, 0.00, -0.00, -1.00, 135.7, 182.0)">n</text><text xml:space="preserve" font-family="Baskerville" font-size="40.0" fill="#6E695A" transform="matrix(1.00, 0.00, -0.00, -1.00, 157.0, 182.0)">d</text><text xml:space="preserve" font-family="Baskerville" font-size="40.0" fill="#6E695A" transform="matrix(1.00, 0.00, -0.00, -1.00, 177.8, 182.0)"> </text><text xml:space="preserve" font-family="Baskerville" font-size="40.0" fill="#6E695A" transform="matrix(1.00, 0.00, -0.00, -1.00, 187.8, 182.0)">s</text><text xml:space="preserve" font-family="Baskerville" font-size="40.0" fill="#6E695A" transform="matrix(1.00, 0.00, -0.00, -1.00, 201.2, 182.0)">p</text><text xml:space="preserve" font-family="Baskerville" font-size="40.0" fill="#6E695A" transform="matrix(1.00, 0.00, -0.00, -1.00, 222.0, 182.0)">e</text><text xml:space="preserve" font-family="Baskerville" font-size="40.0" fill="#6E695A" transform="matrix(1.00, 0.00, -0.00, -1.00, 239.5, 182.0)">e</text><text xml:space="preserve" font-family="Baskerville" font-size="40.0" fill="#6E695A" transform="matrix(1.00, 0.00, -0.00, -1.00, 257.0, 182.0)">c</text><text xml:space="preserve" font-family="Baskerville" font-size="40.0" fill="#6E695A" transform="matrix(1.00, 0.00, -0.00, -1.00, 273.6, 182.0)">h</text><text xml:space="preserve" font-family="Baskerville" font-size="40.0" fill="#6E695A" transform="matrix(1.00, 0.00, -0.00, -1.00, 294.9, 182.0)">e</text><text xml:space="preserve" font-family="Baskerville" font-size="40.0" fill="#6E695A" transform="matrix(1.00, 0.00, -0.00, -1.00, 312.4, 182.0)">s</text><text xml:space="preserve" font-family="Baskerville" font-size="40.0" fill="#6E695A" transform="matrix(1.00, 0.00, -0.00, -1.00, 325.0, 182.0)">.</text></g></svg>